<?xml version="1.0" ?><!DOCTYPE svg  PUBLIC '-//W3C//DTD SVG 1.1//EN'  'http://www.w3.org/Graphics/SVG/1.1/DTD/svg11.dtd'><svg height="512px" id="Layer_1" style="enable-background:new 0 0 512 512;" version="1.1" viewBox="0 0 512 512" width="512px" xml:space="preserve" xmlns="http://www.w3.org/2000/svg" xmlns:xlink="http://www.w3.org/1999/xlink"><g><path d="M512,255.997C512,114.886,397.429,0,256.202,0   C114.579,0,0,114.886,0,255.997C0,397.525,114.579,512,256.202,512C397.429,512,512,397.525,512,255.997L512,255.997z" style="fill-rule:evenodd;clip-rule:evenodd;fill:#FD8469;"/><rect height="206.709" style="fill-rule:evenodd;clip-rule:evenodd;fill:#57585A;stroke:#7E5C62;stroke-width:0.2268;stroke-miterlimit:10;" width="276.091" x="158.735" y="141.111"/><path d="M430.049,136.345h-13.924H177.827h-13.923h-3.976h-5.971v9.544   v7.946v184.057c0,2.777,2.385,5.16,5.177,5.16c2.779,0,4.77-2.383,4.77-5.16V153.835v-7.946h13.923h238.298h13.924v7.946v184.057   c0,2.777,1.985,5.16,4.777,5.16c2.779,0,4.77-2.383,4.77-5.16V153.835v-7.946v-9.544h-5.567H430.049z" style="fill-rule:evenodd;clip-rule:evenodd;fill:#FEFEFE;"/><path d="M449.941,357.762H144.016c-2.389,0-4.773-2.383-4.773-5.16   v-9.549c0-2.777,2.385-5.16,4.773-5.16h305.926c2.385,0,4.769,2.383,4.769,5.16v9.549   C454.71,355.379,452.326,357.762,449.941,357.762L449.941,357.762z" style="fill-rule:evenodd;clip-rule:evenodd;fill:#7E5938;"/><path d="M223.18,337.893v-9.943c0-2.383-2.385-4.766-5.168-4.766   h-29.44c-2.788,0-4.774,2.383-4.774,4.766v9.943 M223.18,337.893L223.18,337.893L223.18,337.893z" style="fill-rule:evenodd;clip-rule:evenodd;fill:#FFFFFF;"/><path d="M99.46,285.015c-16.315-3.172-3.585,46.511,8.75,39.36   l5.971,19.08c5.563,17.486,19.885,33.389,31.027,46.107c4.375,4.767,31.031,5.563,35.806,0.799   c12.726-12.723,27.845-27.036,33.811-44.523l6.365-19.08c11.941,7.947,27.056-41.341,10.342-38.958   c1.994-38.155-24.264-76.324-64.045-77.516C127.301,209.491,99.062,246.453,99.46,285.015L99.46,285.015z" style="fill-rule:evenodd;clip-rule:evenodd;fill:#FED198;"/><path d="M202.095,353.793l-75.986-1.586   c10.748,44.916-0.395,64.785-0.395,64.785s15.913,17.092,36.599,17.495c20.292,0.788,36.998-15.507,36.998-15.507   S188.97,398.314,202.095,353.793L202.095,353.793z" style="fill-rule:evenodd;clip-rule:evenodd;fill:#F0B97D;"/><path d="M126.108,390.361c-28.243,11.527-50.127,21.471-66.434,29.811   c1.191,1.586,2.787,3.574,4.379,5.16l0.395,0.412c1.192,1.191,2.385,2.785,3.577,3.977l1.201,1.191   c1.192,1.191,2.385,2.777,3.577,3.969l0.794,0.798l2.384,1.979l2.394,2.384l2.385,2.399l0.395,0.394   c1.592,1.594,2.792,2.785,4.379,3.978l1.192,1.191c1.193,0.789,2.386,1.98,3.577,3.172l1.193,1.192   c1.2,0.796,2.393,1.594,3.585,2.383l1.591,1.602l2.39,1.988l2.783,1.989l2.385,1.586l1.592,1.191l3.581,2.777l1.592,1.191   c1.191,0.797,2.385,1.595,3.585,2.383l1.986,1.208l3.178,1.98l2.394,1.595l1.986,1.191l3.577,1.98l1.994,1.19l2.783,1.595   l3.179,1.586l2.394,1.191l2.779,1.586l3.187,1.603l1.592,0.797c1.591,0.798,2.783,1.191,4.37,1.989l1.596,0.788   c1.192,0.403,2.783,1.191,3.976,1.595l1.986,0.788c1.2,0.798,2.792,1.191,3.984,1.989l1.587,0.395   c1.192,0.402,2.784,1.191,3.984,1.594l1.588,0.395c1.191,0.797,2.783,1.192,4.378,1.586l1.592,0.402   c1.192,0.789,2.783,1.191,4.371,1.604l1.591,0.377c1.596,0.813,3.187,1.208,4.774,1.603l1.192,0.402   c1.994,0.395,3.585,0.789,5.177,1.191l0.395,0.396h0.398c1.592,0.394,3.586,0.796,5.173,1.191h0.798   c1.587,0.394,3.577,0.796,5.173,1.191l1.192,0.395c1.985,0.402,3.577,0.796,5.563,1.191h0.803c1.591,0.402,3.576,0.796,5.566,0.796   l0.803,0.396c3.972,0.402,7.952,0.797,11.928,1.191l0.399,0.402c1.985,0,3.979,0,5.966,0.395h0.798c1.985,0,3.98,0.395,5.571,0.395   h1.192c1.986,0,3.577,0,5.571,0.402h1.192c1.986,0,3.972,0,5.967,0c15.912,0,31.825-1.594,46.939-4.372   c4.379-20.666,15.119-46.509,12.733-49.287c-9.551-8.75-33.021-27.832-114.578-65.599L126.108,390.361z M186.577,502.468   c1.994,0.395,3.585,0.789,5.177,1.191" style="fill-rule:evenodd;clip-rule:evenodd;fill:#333333;"/><polygon points="213.237,364.122 213.237,364.122 213.237,364.122  " style="fill-rule:evenodd;clip-rule:evenodd;fill:#FFFFFF;"/><path d="M203.291,362.527L203.291,362.527L203.291,362.527z" style="fill-rule:evenodd;clip-rule:evenodd;fill:#FFFFFF;"/><path d="M168.283,457.946L168.283,457.946v-0.402V457.946z    M155.15,457.544L155.15,457.544v-0.395V457.544z" style="fill-rule:evenodd;clip-rule:evenodd;fill:#8FA7AF;"/><path d="M98.658,257.587c0,0-11.533-15.9,5.571-31.004   c0,0,3.187-25.05,29.042-10.74c0,0,11.143-29.019,71.212-7.148l-9.552,1.59c46.155,26.637,48.142,27.828,36.205,79.496   c-1.99,10.346-6.765,21.078-9.548,35.392c-7.158,25.434-9.942,39.345-21.484,44.915c-17.898,8.743-52.512,8.743-70.41,0.798   c-14.321-6.368-14.321-25.047-21.484-46.51C101.446,303.298,91.496,274.677,98.658,257.587L98.658,257.587z" style="fill-rule:evenodd;clip-rule:evenodd;fill:#1F120E;"/><polygon points="119.743,378.83 208.062,381.215 214.824,407.846    110.595,406.26  " style="fill-rule:evenodd;clip-rule:evenodd;fill:#333333;"/><path d="M320.646,325.566c3.586,1.191,7.558-0.787,8.352-4.38   l9.95-31.406c1.192-3.574-0.793-7.543-4.379-8.734c-3.578-1.192-7.558,0.797-8.75,4.766l-9.943,31.407   C315.082,320.792,317.068,324.779,320.646,325.566L320.646,325.566z" style="fill-rule:evenodd;clip-rule:evenodd;fill:#FED198;"/><path d="M332.582,333.908c3.577,1.191,7.558-0.799,8.355-4.365   l9.942-31.406c1.201-3.969-0.794-7.56-4.371-8.751c-3.984-1.191-7.562,0.797-8.754,4.38l-9.951,31.406   C326.611,329.141,328.997,332.717,332.582,333.908L332.582,333.908z" style="fill-rule:evenodd;clip-rule:evenodd;fill:#FED198;"/><path d="M343.717,343.852c3.586,1.191,7.562-1.193,8.758-4.768   l9.943-31.398c1.192-3.591-1.193-7.56-4.774-8.751c-3.577-0.798-7.558,1.191-8.355,4.766l-9.942,31.399   C338.154,338.691,340.14,342.658,343.717,343.852L343.717,343.852z" style="fill-rule:evenodd;clip-rule:evenodd;fill:#FED198;"/><polygon points="302.348,352.207 290.807,277.061 304.733,274.677    316.67,349.809  " style="fill-rule:evenodd;clip-rule:evenodd;fill:#FEFEFE;"/><path d="M305.926,325.969c3.979,0.789,7.558-1.189,8.758-4.782   l9.942-31.406c1.192-3.574-0.794-7.543-4.773-8.734c-3.578-1.192-7.164,1.191-8.355,4.766l-9.942,31.407   C300.362,320.792,302.348,324.779,305.926,325.969L305.926,325.969z" style="fill-rule:evenodd;clip-rule:evenodd;fill:#FED198;"/><path d="M303.142,345.436c3.183-1.191,5.177-4.766,3.984-8.348   l-10.35-29.008c-1.192-3.591-4.77-5.177-8.351-3.985c-3.183,1.191-5.177,4.782-3.984,8.357l10.349,29.015   C295.983,344.646,299.561,346.629,303.142,345.436L303.142,345.436z" style="fill-rule:evenodd;clip-rule:evenodd;fill:#FED198;"/><path d="M314.28,360.941c15.917,5.16,32.623-3.969,37.401-19.475   l0.399-1.191c5.164-15.496-3.985-32.59-19.499-37.372c-15.912-4.767-32.619,3.969-37.396,19.886l-0.396,0.798   C290.014,339.479,298.763,356.176,314.28,360.941L314.28,360.941z" style="fill-rule:evenodd;clip-rule:evenodd;fill:#FED198;"/><path d="M291.604,346.629l-48.132,109.724   c-5.177,19.081,6.365,38.95,25.455,43.733c19.499,5.16,38.993-6.37,43.762-25.844L342.13,359.75L291.604,346.629z" style="fill-rule:evenodd;clip-rule:evenodd;fill:#333333;"/><path d="M266.543,225.786h-7.558v-3.575l0,0c-1.592,2.782-4.379,4.372-7.558,4.372   c-2.385,0-4.379-0.797-5.97-1.988c-1.192-1.586-1.986-3.176-1.986-5.559c0-5.177,2.779-7.958,8.75-8.751l6.764-0.793   c0-2.781-1.592-3.973-4.379-3.973c-3.179,0-5.962,0.793-8.75,2.782v-5.974c1.192-0.792,2.788-1.191,4.773-1.586   c1.592-0.398,3.577-0.797,4.778-0.797c7.558,0,11.135,3.591,11.135,11.134V225.786z M258.985,215.843v-1.984l-4.379,0.792   c-2.783,0.399-3.977,1.59-3.977,3.18c0,1.204,0.399,1.997,0.798,2.396c0.794,0.399,1.588,0.793,2.779,0.793   c1.201,0,2.394-0.395,3.586-1.586C258.586,218.637,258.985,217.433,258.985,215.843L258.985,215.843z M303.939,213.859h-9.547   v9.544h-4.778v-9.544h-9.544v-4.766h9.544v-9.545h4.778v9.545h9.547V213.859z M321.045,223.009L321.045,223.009v2.777h-7.957   v-36.961h7.957v15.9l0,0c1.994-3.192,4.773-4.782,7.952-4.782c3.585,0,5.971,1.191,7.565,3.591c1.99,1.984,2.783,5.161,2.783,9.133   c0,3.974-1.191,7.56-3.187,9.943c-1.986,2.782-4.77,3.973-7.956,3.973C325.024,226.583,322.64,225.392,321.045,223.009   L321.045,223.009z M320.646,212.269v2.781c0,1.59,0.399,2.781,1.595,3.985c0.799,1.191,1.991,1.59,3.578,1.59   c1.592,0,3.179-0.797,3.979-1.989c1.192-1.603,1.592-3.587,1.592-5.97c0-1.984-0.399-3.574-1.192-4.766   c-1.2-1.191-2.394-1.984-3.979-1.984c-1.592,0-2.784,0.793-3.978,1.984C321.438,209.093,320.646,210.683,320.646,212.269   L320.646,212.269z M377.935,208.694h-23.868v-5.161h23.868V208.694z M377.935,219.434h-23.868v-5.177h23.868V219.434z    M406.18,224.993c-1.986,1.192-4.38,1.59-7.558,1.59c-3.98,0-7.159-1.191-9.544-3.574c-2.393-2.383-3.586-5.177-3.586-9.15   c0-4.368,1.193-7.548,3.98-9.931c2.385-2.395,5.963-3.985,10.342-3.985c2.783,0,5.172,0.398,6.365,1.191v6.767   c-1.588-1.191-3.582-1.984-5.572-1.984c-1.985,0-3.972,0.793-5.172,1.984c-1.193,1.59-1.986,3.176-1.986,5.559   s0.793,3.973,1.986,5.177c1.2,1.191,2.787,1.989,5.172,1.989c1.592,0,3.586-0.797,5.572-1.989V224.993z" style="fill:#FEFEFE;"/><path d="M269.722,200.341L269.722,200.341h5.177v2.383h-8.355v-2.383l3.585-3.176   c0.794-0.797,1.192-1.191,1.588-1.59c0.398-0.793,0.398-1.191,0.398-1.59c0-1.191-0.398-1.586-1.986-1.586   c-0.802,0-1.994,0.395-2.792,1.191v-2.383c1.193-0.797,2.386-1.191,3.586-1.191c1.192,0,2.385,0.395,2.783,1.191   c0.794,0.395,1.193,1.191,1.193,2.383c0,1.586-0.798,2.777-2.386,4.368L269.722,200.341z" style="fill:#FEFEFE;"/><path d="M343.717,200.341L343.717,200.341h5.178v2.383h-8.356v-2.383l3.578-3.176   c0.801-0.797,1.2-1.191,1.595-1.59c0.398-0.793,0.398-1.191,0.398-1.59c0-1.191-0.793-1.586-1.993-1.586   c-0.794,0-1.986,0.395-2.783,1.191v-2.383c1.191-0.797,2.384-1.191,3.584-1.191c1.192,0,1.986,0.395,2.784,1.191   c0.794,0.395,1.193,1.191,1.193,2.383c0,1.586-0.799,2.777-2.785,4.368L343.717,200.341z" style="fill:#FEFEFE;"/><path d="M412.149,200.341L412.149,200.341h4.77v2.383h-7.956v-2.383l3.585-3.176   c0.794-0.797,1.193-1.191,1.587-1.59c0-0.793,0.399-1.191,0.399-1.59c0-1.191-0.793-1.586-1.986-1.586   c-0.797,0-1.993,0.395-2.792,1.191v-2.383c0.799-0.797,1.995-1.191,3.586-1.191c1.192,0,1.985,0.395,2.783,1.191   c0.794,0.395,1.192,1.191,1.192,2.383c0,1.586-0.797,2.777-2.783,4.368L412.149,200.341z" style="fill:#FEFEFE;"/></g></svg>