<svg data-v-423bf9ae="" xmlns="http://www.w3.org/2000/svg" viewBox="0 0 44.69158709577136 60" class="font"><!----><!----><defs data-v-423bf9ae=""><linearGradient data-v-423bf9ae="" gradientTransform="rotate(25)" id="092f777f-0267-47e0-ac3b-d55e146d57e1" x1="0%" y1="0%" x2="100%" y2="0%"><stop data-v-423bf9ae="" offset="0%" style="stop-color: rgb(233, 13, 202); stop-opacity: 1;"></stop><stop data-v-423bf9ae="" offset="100%" style="stop-color: rgb(21, 54, 241); stop-opacity: 1;"></stop></linearGradient></defs><g data-v-423bf9ae="" id="15e63543-cc30-4f50-9d70-f37094482290" fill="url(#092f777f-0267-47e0-ac3b-d55e146d57e1)" transform="matrix(5.607476234436035,0,0,5.607476234436035,-4.710279941558838,-21.644855499267578)"><path d="M7.45 12.18L7.45 12.18L7.45 12.18Q7.81 11.91 8.11 11.53L8.11 11.53L8.11 11.53Q8.40 11.14 8.60 11.14L8.60 11.14L8.60 11.14Q8.81 11.14 8.81 11.75L8.81 11.75L8.81 11.75Q8.81 12.36 8.46 12.90L8.46 12.90L8.46 12.90Q8.12 13.44 7.56 13.80L7.56 13.80L7.56 13.80Q6.41 14.56 4.84 14.56L4.84 14.56L4.84 14.56Q2.94 14.56 1.89 13.61L1.89 13.61L1.89 13.61Q0.84 12.66 0.84 10.96L0.84 10.96L0.84 10.96Q0.84 8.88 1.85 7L1.85 7L1.85 7Q2.18 6.38 2.60 5.87L2.60 5.87L2.60 5.87Q2.28 5.49 2.09 5.08L2.09 5.08L2.09 5.08Q1.90 4.66 1.90 4.45L1.90 4.45L1.90 4.45Q1.90 4.07 2.18 4.07L2.18 4.07L2.18 4.07Q2.38 4.09 2.63 4.34L2.63 4.34L3.07 4.76L3.07 4.76Q3.23 4.93 3.42 5.04L3.42 5.04L3.42 5.04Q4.80 3.86 6.41 3.86L6.41 3.86L6.41 3.86Q8.01 3.86 8.48 4.76L8.48 4.76L8.48 4.76Q8.65 5.10 8.65 5.59L8.65 5.59L8.65 5.59Q8.65 6.33 8.01 6.83L8.01 6.83L8.01 6.83Q7.36 7.34 6.28 7.34L6.28 7.34L6.28 7.34Q5.19 7.34 4.03 6.89L4.03 6.89L4.03 6.89Q3.04 8.58 3.04 10.43L3.04 10.43L3.04 10.43Q3.04 12.99 5.08 12.99L5.08 12.99L5.08 12.99Q6.34 12.99 7.45 12.18ZM4.70 6.02L4.70 6.02L4.70 6.02Q5.42 6.26 6.26 6.26L6.26 6.26L6.26 6.26Q7.10 6.26 7.10 5.80L7.10 5.80L7.10 5.80Q7.10 5.25 6.41 5.25L6.41 5.25L6.41 5.25Q5.47 5.25 4.70 6.02Z"></path></g><!----><!----></svg>