<?xml version="1.0" ?><svg enable-background="new 0 0 64 64" height="64px" version="1.1" viewBox="0 0 64 64" width="64px" xml:space="preserve" xmlns="http://www.w3.org/2000/svg" xmlns:xlink="http://www.w3.org/1999/xlink"><g id="Layer_1"><g><circle cx="32" cy="32" fill="#C75C5C" r="32"/></g><g><g opacity="0.2"><path d="M49,26c-1.105,0-2-0.895-2-2v-3c0-1.105,0.895-2,2-2l0,0c1.105,0,2,0.895,2,2v3     C51,25.105,50.105,26,49,26L49,26z" fill="#231F20"/></g><g opacity="0.2"><path d="M49,35c-1.105,0-2-0.895-2-2v-3c0-1.105,0.895-2,2-2l0,0c1.105,0,2,0.895,2,2v3     C51,34.105,50.105,35,49,35L49,35z" fill="#231F20"/></g><g opacity="0.2"><path d="M49,44c-1.105,0-2-0.895-2-2v-3c0-1.105,0.895-2,2-2l0,0c1.105,0,2,0.895,2,2v3     C51,43.105,50.105,44,49,44L49,44z" fill="#231F20"/></g><g><path d="M49,24c-1.105,0-2-0.895-2-2v-3c0-1.105,0.895-2,2-2l0,0c1.105,0,2,0.895,2,2v3     C51,23.105,50.105,24,49,24L49,24z" fill="#77B3D4"/></g><g><path d="M49,33c-1.105,0-2-0.895-2-2v-3c0-1.105,0.895-2,2-2l0,0c1.105,0,2,0.895,2,2v3     C51,32.105,50.105,33,49,33L49,33z" fill="#FFFFFF"/></g><g><path d="M49,42c-1.105,0-2-0.895-2-2v-3c0-1.105,0.895-2,2-2l0,0c1.105,0,2,0.895,2,2v3     C51,41.105,50.105,42,49,42L49,42z" fill="#76C2AF"/></g><g opacity="0.2"><path d="M49,50c0,2.209-1.791,4-4,4H21c-2.209,0-4-1.791-4-4V18c0-2.209,1.791-4,4-4h24c2.209,0,4,1.791,4,4V50z" fill="#231F20"/></g><g><path d="M48,48c0,2.209-1.791,4-4,4H20c-2.209,0-4-1.791-4-4V16c0-2.209,1.791-4,4-4h24c2.209,0,4,1.791,4,4V48z" fill="#E0995E"/></g><g><rect fill="#4F5D73" height="40" width="3" x="22" y="12"/></g><g opacity="0.2"><g><path d="M20,22c0,1.105-0.895,2-2,2h-3c-1.105,0-2-0.895-2-2l0,0c0-1.105,0.895-2,2-2h3      C19.105,20,20,20.895,20,22L20,22z" fill="#231F20"/></g><g><path d="M20,30c0,1.105-0.895,2-2,2h-3c-1.105,0-2-0.895-2-2l0,0c0-1.105,0.895-2,2-2h3      C19.105,28,20,28.895,20,30L20,30z" fill="#231F20"/></g><g><path d="M20,38c0,1.105-0.895,2-2,2h-3c-1.105,0-2-0.895-2-2l0,0c0-1.105,0.895-2,2-2h3      C19.105,36,20,36.895,20,38L20,38z" fill="#231F20"/></g><g><path d="M20,46c0,1.105-0.895,2-2,2h-3c-1.105,0-2-0.895-2-2l0,0c0-1.105,0.895-2,2-2h3      C19.105,44,20,44.895,20,46L20,46z" fill="#231F20"/></g></g><g><g><path d="M20,20c0,1.105-0.895,2-2,2h-3c-1.105,0-2-0.895-2-2l0,0c0-1.105,0.895-2,2-2h3      C19.105,18,20,18.895,20,20L20,20z" fill="#E0E0D1"/></g><g><path d="M20,28c0,1.105-0.895,2-2,2h-3c-1.105,0-2-0.895-2-2l0,0c0-1.105,0.895-2,2-2h3      C19.105,26,20,26.895,20,28L20,28z" fill="#E0E0D1"/></g><g><path d="M20,36c0,1.105-0.895,2-2,2h-3c-1.105,0-2-0.895-2-2l0,0c0-1.105,0.895-2,2-2h3      C19.105,34,20,34.895,20,36L20,36z" fill="#E0E0D1"/></g><g><path d="M20,44c0,1.105-0.895,2-2,2h-3c-1.105,0-2-0.895-2-2l0,0c0-1.105,0.895-2,2-2h3      C19.105,42,20,42.895,20,44L20,44z" fill="#E0E0D1"/></g></g><g><circle cx="36" cy="27" fill="#F5CF87" r="4"/></g><g><path d="M42,39.26c0,3.01-2.686,2.725-6,2.725s-6,0.285-6-2.725c0-3.01,2.686-7.267,6-7.267S42,36.249,42,39.26z" fill="#F5CF87"/></g></g></g><g id="Layer_2"/></svg>