<?xml version="1.0" ?><!DOCTYPE svg  PUBLIC '-//W3C//DTD SVG 1.1//EN'  'http://www.w3.org/Graphics/SVG/1.1/DTD/svg11.dtd'><svg height="512px" style="enable-background:new 0 0 512 512;" version="1.1" viewBox="0 0 512 512" width="512px" xml:space="preserve" xmlns="http://www.w3.org/2000/svg" xmlns:xlink="http://www.w3.org/1999/xlink"><g id="_x35_13_x2C__classroom_x2C__class_x2C__teacher_x2C__room"><g><circle cx="136" cy="101" r="40" style="fill:#FEBE76;"/><path d="M101,113c0-22.09,17.91-40,40-40c14.312,0,26.861,7.523,33.93,18.825    C170.781,74.159,154.931,61,136,61c-22.09,0-40,17.91-40,40c0,7.778,2.228,15.033,6.07,21.175    C101.378,119.228,101,116.159,101,113z" style="fill:#E8A664;"/><path d="M136,451H96V331H66V209c0-20.99,17.01-38,38-38h64c20.99,0,38,17.01,38,38v122h-30v50v70H136z" style="fill:#A8CFFF;"/><g><g><g><path d="M74.75,218c0-20.99,17.01-38,38-38h64c8.419,0,16.194,2.741,22.492,7.374       C192.382,177.481,180.952,171,168,171h-64c-20.99,0-38,17.01-38,38v122h8.75V218z" style="fill:#8BBAE8;"/></g><g><rect height="111" style="fill:#8BBAE8;" width="8.75" x="96" y="340"/></g></g></g><path d="M456,239.35v10.79h-34.49v-7.95l6.29-6.56c10.62-10.96,15.78-17.26,15.931-23.82c0-4.58-2.391-8.21-8-8.21    c-4.19,0-7.86,2.42-10.4,4.67l-3.22-9.41c3.67-3.2,9.35-5.79,15.939-5.79c10.99,0,17.05,7.43,17.05,17.61    c0,9.41-5.909,16.92-12.939,24.18l-4.49,4.31v0.18H456z"/><path d="M416.43,193.59l-2.319,10.45c-2.32-1.13-5.53-2.16-9.57-2.16c-9.05,0-16.09,6.3-16.09,19.25    c0,11.65,5.99,18.99,16.16,18.99c3.439,0,7.26-0.86,9.5-1.9l1.72,10.28c-2.09,1.2-6.8,2.5-12.94,2.5    c-17.43,0-26.399-12.52-26.399-29.09c0-19.86,12.26-30.91,27.52-30.91C409.92,191,414.41,192.38,416.43,193.59z"/><path d="M367.29,191.95l2.77,58.19H358.91l-0.75-22.28c-0.22-6.99-0.45-15.45-0.45-23.91h-0.22c-1.57,7.42-3.67,15.71-5.61,22.53    l-6.13,22.71h-8.91l-5.38-22.54c-1.65-6.82-3.37-15.1-4.57-22.7h-0.14c-0.3,7.86-0.53,16.83-0.9,24.09l-0.899,22.1H314.4    l3.22-58.19h15.18l4.94,19.42c1.569,6.74,3.14,13.99,4.26,20.81h0.23c1.42-6.73,3.14-14.42,4.789-20.89l5.381-19.34H367.29z"/><rect height="8.03" width="38.6" x="269" y="231.92"/><rect height="8.03" width="38.6" x="269" y="214.05"/><polygon points="263.17,239.35 263.17,250.14 231,250.14 231,191.95 262.12,191.95 262.12,202.74 242.45,202.74 242.45,214.83     261,214.83 261,225.53 242.45,225.53 242.45,239.35   "/><rect height="20" width="20" x="126" y="261"/><rect height="20" width="20" x="126" y="231"/><rect height="20" width="20" x="126" y="201"/><path d="M176,456c-2.761,0-5-2.238-5-5V331c0-2.762,2.239-5,5-5h25V209c0-18.196-14.804-33-33-33h-64c-18.196,0-33,14.804-33,33    v117h25c2.761,0,5,2.238,5,5v120c0,2.762-2.239,5-5,5s-5-2.238-5-5V336H66c-2.761,0-5-2.238-5-5V209c0-23.71,19.29-43,43-43h64    c23.71,0,43,19.29,43,43v122c0,2.762-2.239,5-5,5h-25v115C181,453.762,178.761,456,176,456z"/><path d="M136,456c-2.761,0-5-2.238-5-5V351c0-2.762,2.239-5,5-5s5,2.238,5,5v100C141,453.762,138.761,456,136,456z"/><path d="M136,146c-24.813,0-45-20.187-45-45s20.187-45,45-45s45,20.187,45,45S160.813,146,136,146z M136,66    c-19.299,0-35,15.701-35,35s15.701,35,35,35s35-15.701,35-35S155.299,66,136,66z"/><path d="M479.33,386H176c-2.761,0-5-2.238-5-5s2.239-5,5-5h298.33V106H176c-2.761,0-5-2.239-5-5s2.239-5,5-5h303.33    c2.762,0,5,2.239,5,5v280C484.33,383.762,482.092,386,479.33,386z"/><path d="M479.33,346H257.67c-2.761,0-5-2.238-5-5s2.239-5,5-5h221.66c2.762,0,5,2.238,5,5S482.092,346,479.33,346z"/><path d="M456,456H26c-2.761,0-5-2.238-5-5s2.239-5,5-5h430c2.762,0,5,2.238,5,5S458.762,456,456,456z"/><path d="M396,286H276c-2.762,0-5-2.238-5-5s2.238-5,5-5h120c2.762,0,5,2.238,5,5S398.762,286,396,286z"/></g></g><g id="Layer_1"/></svg>