<?xml version="1.0" encoding="UTF-8" standalone="no"?>
<!-- Created with Inkscape (http://www.inkscape.org/) -->

<svg
   xmlns:osb="http://www.openswatchbook.org/uri/2009/osb"
   xmlns:dc="http://purl.org/dc/elements/1.1/"
   xmlns:cc="http://creativecommons.org/ns#"
   xmlns:rdf="http://www.w3.org/1999/02/22-rdf-syntax-ns#"
   xmlns:svg="http://www.w3.org/2000/svg"
   xmlns="http://www.w3.org/2000/svg"
   xmlns:sodipodi="http://sodipodi.sourceforge.net/DTD/sodipodi-0.dtd"
   xmlns:inkscape="http://www.inkscape.org/namespaces/inkscape"
   width="2003.8599"
   height="829.03168"
   viewBox="0 0 531.69 219.34797"
   version="1.1"
   id="svg3760"
   inkscape:version="0.92.3 (2405546, 2018-03-11)"
   sodipodi:docname="homeback1.svg"
   enable-background="new">
  <defs
     id="defs3754">
    <inkscape:perspective
       sodipodi:type="inkscape:persp3d"
       inkscape:vp_x="27.316647 : 386.85767 : 1"
       inkscape:vp_y="0 : 3435.9342 : 0"
       inkscape:vp_z="1850.65 : 386.85767 : 1"
       inkscape:persp3d-origin="938.98305 : 265.64553 : 1"
       id="perspective6754" />
    <inkscape:perspective
       sodipodi:type="inkscape:persp3d"
       inkscape:vp_x="0 : 96.212131 : 1"
       inkscape:vp_y="0 : 909.09095 : 0"
       inkscape:vp_z="482.42345 : 96.212131 : 1"
       inkscape:persp3d-origin="241.2118 : 64.141419 : 1"
       id="perspective6368" />
    <linearGradient
       id="linearGradient6225"
       osb:paint="solid">
      <stop
         style="stop-color:#c699ff;stop-opacity:1;"
         offset="0"
         id="stop6223" />
    </linearGradient>
    <linearGradient
       inkscape:collect="always"
       id="linearGradient4742"
       osb:paint="gradient">
      <stop
         style="stop-color:#c699ff;stop-opacity:1;"
         offset="0"
         id="stop4738" />
      <stop
         style="stop-color:#c699ff;stop-opacity:0;"
         offset="1"
         id="stop4740" />
    </linearGradient>
  </defs>
  <sodipodi:namedview
     id="base"
     pagecolor="#ffffff"
     bordercolor="#666666"
     borderopacity="0.25098039"
     inkscape:pageopacity="0"
     inkscape:pageshadow="2"
     inkscape:zoom="0.70710678"
     inkscape:cx="1147.6446"
     inkscape:cy="399.91567"
     inkscape:document-units="mm"
     inkscape:current-layer="layer1"
     showgrid="false"
     units="px"
     inkscape:showpageshadow="true"
     showborder="false"
     inkscape:pagecheckerboard="false"
     showguides="true"
     inkscape:window-width="1920"
     inkscape:window-height="1025"
     inkscape:window-x="0"
     inkscape:window-y="27"
     inkscape:window-maximized="1"
     fit-margin-bottom="20"
     scale-x="0.30001"
     fit-margin-top="0"
     fit-margin-left="0"
     fit-margin-right="0"
     viewbox-width="531.69"
     inkscape:object-paths="false"
     inkscape:snap-bbox="true"
     inkscape:bbox-nodes="false"
     inkscape:bbox-paths="true"
     inkscape:snap-bbox-midpoints="true"
     inkscape:snap-bbox-edge-midpoints="false"
     inkscape:snap-global="true" />
  <metadata
     id="metadata3757">
    <rdf:RDF>
      <cc:Work
         rdf:about="">
        <dc:format>image/svg+xml</dc:format>
        <dc:type
           rdf:resource="http://purl.org/dc/dcmitype/StillImage" />
        <dc:title></dc:title>
      </cc:Work>
    </rdf:RDF>
  </metadata>
  <g
     inkscape:label="Layer 1"
     inkscape:groupmode="layer"
     id="layer1"
     transform="translate(0.51026758,-85.578906)"
     style="opacity:1;">
    <path
       style="fill:none;stroke:#000000;stroke-width:0.26458332px;stroke-linecap:butt;stroke-linejoin:miter;stroke-opacity:1"
       d="M -0.37797618,276.96724 C 44.979166,179.82736 231.6994,272.05355 231.6994,272.05355"
       id="path3766"
       inkscape:connector-curvature="0" />
    <path
       style="fill:none;stroke:#000000;stroke-width:0.26458332px;stroke-linecap:butt;stroke-linejoin:miter;stroke-opacity:1"
       d="m 221.11607,267.13986 c 112.63691,58.96429 182.18452,-7.18155 182.18452,-7.18155"
       id="path3786"
       inkscape:connector-curvature="0" />
    <path
       style="fill:none;stroke:#000000;stroke-width:0.26458332px;stroke-linecap:butt;stroke-linejoin:miter;stroke-opacity:1"
       d="m 391.20534,268.65177 c 99.02976,-70.30357 138.3393,-43.08929 138.3393,-43.08929"
       id="path3790"
       inkscape:connector-curvature="0" />
    <path
       style="fill:none;stroke:#000000;stroke-width:0.26458332px;stroke-linecap:butt;stroke-linejoin:miter;stroke-opacity:1"
       d="m 529.54464,225.56248 c 0,-139.473211 0,-139.473211 0,-139.473211 L 0,85.711293 -0.37797618,276.96724"
       id="path3792"
       inkscape:connector-curvature="0" />
    <path
       style="fill:#2a2aff;stroke-width:0.38852265"
       d="m 300.8129,302.23212 c -15.72222,-1.30305 -31.99282,-4.96506 -47.7657,-10.75055 -7.85293,-2.88047 -17.50606,-7.08841 -17.50606,-7.08841 -0.25531,-0.4198 -14.73233,-7.61016 -22.09277,-10.80103 -37.26442,-16.15501 -73.33724,-26.9342 -103.79622,-31.0162 -12.677322,-1.69895 -29.691839,-2.28354 -39.865352,-1.36962 -33.554479,3.01422 -56.727266,16.86355 -69.64222929,41.62188 l -1.75853371,3.37117 0.2531309,-99.35007 c 0.139222,-54.64251 0.3101857,-99.415264 0.37991942,-99.494964 0.0697336,-0.0797 119.85428468,-0.0113 266.18789468,0.151978 l 266.0611,0.296883 V 160.3719 c 0,57.90648 -0.0961,72.52474 -0.47576,72.35126 -3.31055,-1.51288 -6.9003,-2.74574 -10.00376,-3.43572 -4.94915,-1.10035 -16.17325,-1.50852 -22.31794,-0.8116 -17.54105,1.98955 -35.90305,8.14013 -57.02489,19.10128 -12.67126,6.5757 -19.60608,10.73948 -36.20326,21.73701 -3.41473,2.26267 -11.84868,8.45813 -12.64805,9.29115 -1.04955,1.09365 -7.49035,5.01547 -12.74355,7.75958 -20.9734,10.95571 -43.63415,16.39605 -67.61991,16.2341 -4.18663,-0.0281 -9.32476,-0.19335 -11.41806,-0.36684 z"
       id="path3794"
       inkscape:connector-curvature="0"
       sodipodi:nodetypes="cccscsccssscsccssccccc" />
    <path
       style="fill:none;stroke:#000000;stroke-width:0.26458332px;stroke-linecap:butt;stroke-linejoin:miter;stroke-opacity:1"
       d="M 0.37417734,144.33563 C 49.017232,201.21058 134.32966,179.13412 134.32966,179.13412"
       id="path3862"
       inkscape:connector-curvature="0" />
    <path
       style="fill:none;stroke:#000000;stroke-width:0.26458332px;stroke-linecap:butt;stroke-linejoin:miter;stroke-opacity:1"
       d="m 134.32966,179.13412 c 128.34283,-42.28204 221.13881,15.71545 221.13881,15.71545"
       id="path3894"
       inkscape:connector-curvature="0" />
    <path
       style="fill:none;stroke:#000000;stroke-width:0.26458332px;stroke-linecap:butt;stroke-linejoin:miter;stroke-opacity:1"
       d="m 355.46847,194.84957 c 155.65776,92.4218 173.61829,-24.32153 173.61829,-24.32153"
       id="path3896"
       inkscape:connector-curvature="0" />
    <path
       style="fill:none;stroke:#000000;stroke-width:0.26458332px;stroke-linecap:butt;stroke-linejoin:miter;stroke-opacity:1"
       d="m 529.08676,170.52804 c 0.45788,-84.438771 0.45788,-84.438771 0.45788,-84.438771 L 0,85.711293 0.37417734,144.33563"
       id="path3900"
       inkscape:connector-curvature="0" />
    <path
       style="opacity:1;fill:#0000d4;fill-opacity:0.94117647;stroke-width:1.00170708;paint-order:stroke fill markers"
       d="m 0.61972416,88.000854 v 22.033276 c 0,12.11844 -0.11059701,24.86341 -0.24578332,28.3223 l -0.24578329,6.28903 5.59597805,5.64461 c 11.0960904,11.1923 22.5795214,18.70061 37.5099554,24.52616 23.830864,9.29803 53.868497,11.59252 83.684009,6.39185 3.45645,-0.6029 8.90101,-1.98354 14.26737,-3.61735 23.16992,-7.05417 44.47015,-11.07768 68.18779,-12.88035 8.03424,-0.61085 31.11041,-0.61334 39.0474,-0.005 8.72525,0.66913 20.92735,2.16014 28.58399,3.49281 29.26472,5.09362 58.47736,15.15514 79.20549,27.28051 13.90622,8.13481 27.0972,15.09288 36.94887,19.48976 22.6173,10.09427 42.67699,15.59709 59.88506,16.42794 23.67721,1.1432 41.81431,-5.10122 55.96183,-19.26704 8.5428,-8.55385 14.44575,-18.42488 18.88023,-31.5712 l 1.93876,-5.74694 0.10165,-43.04956 0.10164,-43.049572 -63.55367,-0.234094 C 431.52,88.349451 312.40285,88.189134 201.77003,88.122294 Z"
       id="path3902"
       inkscape:connector-curvature="0" />
    <path
       sodipodi:type="star"
       style="opacity:0.2;fill:#afc6e9;stroke-width:0.26458332"
       id="path6296"
       sodipodi:sides="5"
       sodipodi:cx="23.198996"
       sodipodi:cy="142.83891"
       sodipodi:r1="11.713604"
       sodipodi:r2="5.856802"
       sodipodi:arg1="-1.1071487"
       sodipodi:arg2="-0.47883019"
       inkscape:flatsided="false"
       inkscape:rounded="0"
       inkscape:randomized="0"
       d="m 28.437479,132.36195 -0.04037,7.77849 6.384854,4.44301 -7.410264,2.36529 -2.252519,7.44532 -4.539426,-6.31666 -7.776986,0.15845 4.604744,-6.2692 -2.553923,-7.34739 7.385314,2.44208 z"
       inkscape:transform-center-x="-0.59336927"
       inkscape:transform-center-y="0.53908955" />
    <ellipse
       style="opacity:0.12000002;fill:#afc6e9;stroke-width:0.26458332"
       id="path6302"
       cx="28.250387"
       cy="197.6559"
       rx="12.160764"
       ry="10.664055" />
    <g
       sodipodi:type="inkscape:box3d"
       id="g6370"
       style="opacity:0.32000002;fill:#afc6e9"
       inkscape:perspectiveID="#perspective6368"
       inkscape:corner0="0.21079931 : 0.087903262 : 0 : 1"
       inkscape:corner7="0.086185553 : 0.034935277 : 0.13590611 : 1">
      <path
         sodipodi:type="inkscape:box3dside"
         id="path6380"
         style="fill:#afafde;fill-rule:evenodd;stroke:none;stroke-linejoin:round"
         inkscape:box3dsidetype="13"
         d="m 198.66926,209.00818 22.85108,0.0296 28.94762,-0.032 -23.2236,-0.0236 z"
         points="221.52034,209.03776 250.46796,209.0058 227.24436,208.98216 198.66926,209.00818 " />
    </g>
    <path
       sodipodi:type="star"
       style="opacity:0.12999998;fill:#afc6e9;stroke-width:0.26458332"
       id="path6388"
       sodipodi:sides="5"
       sodipodi:cx="269.40771"
       sodipodi:cy="262.20148"
       sodipodi:r1="20.139643"
       sodipodi:r2="11.977311"
       sodipodi:arg1="-0.95702623"
       sodipodi:arg2="-1.7127598"
       inkscape:flatsided="false"
       inkscape:rounded="0"
       inkscape:randomized="0"
       d="m 281.00721,245.73767 -13.29413,4.60699 20.93709,17.801 -8.48962,-11.21984 -10.45985,25.41317 8.04727,-11.54123 -27.40163,-2.0948 13.4631,4.08697 -6.47529,-26.70783 0.27339,14.06711 z"
       inkscape:transform-center-x="-0.090535477"
       inkscape:transform-center-y="1.8368513" />
    <path
       sodipodi:type="star"
       style="opacity:0.12999998;fill:#afc6e9;stroke-width:0.26458332"
       id="path6390"
       sodipodi:sides="5"
       sodipodi:cx="121.96804"
       sodipodi:cy="217.29597"
       sodipodi:r1="12.809769"
       sodipodi:r2="13.180987"
       sodipodi:arg1="-1.4536876"
       sodipodi:arg2="-1.2734473"
       inkscape:flatsided="false"
       inkscape:rounded="0"
       inkscape:randomized="0"
       d="m 123.46475,204.57395 2.36514,0.11946 8.70003,10.0947 0.61725,2.2863 -6.91217,11.39365 -1.98366,1.29354 -12.97198,-3.05303 -1.84322,-1.48685 -1.10496,-13.28052 0.84449,-2.21247 z"
       inkscape:transform-center-x="0.32527224"
       inkscape:transform-center-y="1.1328103" />
    <path
       sodipodi:type="star"
       style="opacity:0.2;fill:#afc6e9;stroke-width:0.26458332"
       id="path6394"
       sodipodi:sides="5"
       sodipodi:cx="113.37573"
       sodipodi:cy="120.38828"
       sodipodi:r1="22.852404"
       sodipodi:r2="22.208813"
       sodipodi:arg1="-0.69264184"
       sodipodi:arg2="-0.064323312"
       inkscape:flatsided="false"
       inkscape:rounded="0"
       inkscape:randomized="0"
       d="m 130.96207,105.79537 4.57655,13.16535 -2.84972,13.6437 -11.10677,8.42088 -13.85654,1.50589 -11.440909,-7.96097 -5.714093,-12.71301 4.035896,-13.34102 10.325036,-9.362964 13.93523,-0.284239 z"
       inkscape:transform-center-x="0.32113207"
       inkscape:transform-center-y="0.31180488" />
    <ellipse
       style="opacity:0.23000004;fill:#0000d4;stroke-width:0.26458332;paint-order:stroke fill markers"
       id="path6570"
       cx="430.6781"
       cy="117.76904"
       rx="10.476966"
       ry="2.2450638" />
    <ellipse
       style="opacity:0.23000004;fill:#0000d4;stroke-width:0.26458332;paint-order:stroke fill markers"
       id="path6574"
       ry="5.9868374"
       rx="14.218739"
       cy="111.40802"
       cx="427.68469" />
    <path
       sodipodi:type="star"
       style="opacity:0.27000002;fill:#b7bec8;stroke:#000000;stroke-width:0.26458332;stroke-opacity:0;paint-order:stroke fill markers"
       id="path6614"
       sodipodi:sides="5"
       sodipodi:cx="320.29578"
       sodipodi:cy="117.39486"
       sodipodi:r1="19.097712"
       sodipodi:r2="11.357657"
       sodipodi:arg1="-0.96649082"
       sodipodi:arg2="-0.33817229"
       inkscape:flatsided="false"
       inkscape:rounded="0"
       inkscape:randomized="0"
       d="m 331.14692,101.67941 -0.13675,11.94739 7.58507,9.23177 -11.4049,3.56189 -6.43601,10.06661 -6.91187,-9.74603 -11.56275,-3.01026 7.13314,-9.58526 -0.71017,-11.92705 11.32039,3.82201 z"
       inkscape:transform-center-x="-0.14169563"
       inkscape:transform-center-y="1.6883787" />
    <path
       style="opacity:0.27000002;fill:#b7bec8;stroke:#000000;stroke-width:0.26458332;stroke-opacity:0;paint-order:stroke fill markers"
       id="path6676"
       sodipodi:type="arc"
       sodipodi:cx="451.63205"
       sodipodi:cy="121.51081"
       sodipodi:rx="27.314947"
       sodipodi:ry="18.708866"
       sodipodi:start="1.5675806"
       sodipodi:end="4.7122523"
       d="m 451.71989,140.21958 a 27.314947,18.708866 0 0 1 -23.71332,-9.31889 27.314947,18.708866 0 0 1 -0.0458,-18.72546 27.314947,18.708866 0 0 1 23.66758,-9.37329 l 0.004,18.70887 z" />
    <path
       sodipodi:type="star"
       style="opacity:0.27000002;fill:#b7bec8;stroke:#000000;stroke-width:0.26458332;stroke-opacity:0;paint-order:stroke fill markers"
       id="path6678"
       sodipodi:sides="5"
       sodipodi:cx="465.47662"
       sodipodi:cy="196.72046"
       sodipodi:r1="15.737705"
       sodipodi:r2="10.264603"
       sodipodi:arg1="-1.2565644"
       sodipodi:arg2="-2.4870404"
       inkscape:flatsided="false"
       inkscape:rounded="0"
       inkscape:randomized="0"
       d="m 470.34093,181.75337 -13.00743,8.71796 23.88083,6.25027 -12.31079,-9.6768 1.43521,24.64346 5.39894,-14.69855 -22.99381,8.98021 15.64752,0.5926 -15.64618,-19.09338 4.27176,15.0648 z"
       inkscape:transform-center-x="-1.5024753"
       inkscape:transform-center-y="0.00035183036" />
    <rect
       style="opacity:0.17000002;fill:#b7bec8;stroke:#000000;stroke-width:0.26458332;stroke-opacity:0;paint-order:stroke fill markers"
       id="rect6680"
       width="29.185829"
       height="24.695704"
       x="335.26291"
       y="182.12753" />
    <g
       sodipodi:type="inkscape:box3d"
       id="g6717"
       style="opacity:0.23000004;fill:#b7bec8;stroke:#000000;stroke-opacity:0;paint-order:stroke fill markers"
       inkscape:perspectiveID="#perspective6754"
       inkscape:corner0="0.33416376 : 0.096511056 : 0 : 1"
       inkscape:corner7="0.13865828 : 0.037920055 : 0.13026828 : 1">
      <path
         sodipodi:type="inkscape:box3dside"
         id="path6719"
         style="fill:#353564;fill-rule:evenodd;stroke:none;stroke-linejoin:round"
         inkscape:box3dsidetype="6"
         d="m 709.99694,-240.77773 v 151.291171 l 101.39022,0.606917 V -226.71273 Z"
         points="709.99694,-89.486559 811.38716,-88.879642 811.38716,-226.71273 709.99694,-240.77773 " />
      <path
         sodipodi:type="inkscape:box3dside"
         id="path6729"
         style="fill:#e9e9ff;fill-rule:evenodd;stroke:none;stroke-linejoin:round"
         inkscape:box3dsidetype="11"
         d="m 811.38716,-226.71273 120.88237,-22.19385 v 159.069254 l -120.88237,0.957684 z"
         points="932.26953,-248.90658 932.26953,-89.837326 811.38716,-88.879642 811.38716,-226.71273 " />
      <path
         sodipodi:type="inkscape:box3dside"
         id="path6721"
         style="fill:#4d4d9f;fill-rule:evenodd;stroke:none;stroke-linejoin:round"
         inkscape:box3dsidetype="5"
         d="m 709.99694,-240.77773 117.30341,-27.14786 104.96918,19.01901 -120.88237,22.19385 z"
         points="827.30035,-267.92559 932.26953,-248.90658 811.38716,-226.71273 709.99694,-240.77773 " />
      <path
         sodipodi:type="inkscape:box3dside"
         id="path6727"
         style="fill:#afafde;fill-rule:evenodd;stroke:none;stroke-linejoin:round"
         inkscape:box3dsidetype="13"
         d="m 709.99694,-89.486559 117.30341,-1.171456 104.96918,0.820689 -120.88237,0.957684 z"
         points="827.30035,-90.658015 932.26953,-89.837326 811.38716,-88.879642 709.99694,-89.486559 " />
      <path
         sodipodi:type="inkscape:box3dside"
         id="path6725"
         style="fill:#d7d7ff;fill-rule:evenodd;stroke:none;stroke-linejoin:round"
         inkscape:box3dsidetype="14"
         d="m 827.30035,-267.92559 v 177.267575 l 104.96918,0.820689 V -248.90658 Z"
         points="827.30035,-90.658015 932.26953,-89.837326 932.26953,-248.90658 827.30035,-267.92559 " />
      <path
         sodipodi:type="inkscape:box3dside"
         id="path6723"
         style="fill:#8686bf;fill-rule:evenodd;stroke:none;stroke-linejoin:round"
         inkscape:box3dsidetype="3"
         d="m 709.99694,-240.77773 117.30341,-27.14786 v 177.267575 l -117.30341,1.171456 z"
         points="827.30035,-267.92559 827.30035,-90.658015 709.99694,-89.486559 709.99694,-240.77773 " />
    </g>
    <g
       sodipodi:type="inkscape:box3d"
       id="g6756"
       style="opacity:0.23000004;fill:#b7bec8;stroke:#000000;stroke-opacity:0;paint-order:stroke fill markers"
       inkscape:perspectiveID="#perspective6368"
       inkscape:corner0="0.14585447 : 0.11019696 : 0 : 1"
       inkscape:corner7="0.0085991429 : 0.063381304 : 0.14608881 : 1">
      <path
         sodipodi:type="inkscape:box3dside"
         id="path6758"
         style="fill:#353564;fill-rule:evenodd;stroke:none;stroke-linejoin:round"
         inkscape:box3dsidetype="6"
         d="m 209.95837,149.15425 v 37.24053 l 30.74152,2.5279 v -33.0295 z"
         points="209.95837,186.39478 240.69989,188.92268 240.69989,155.89318 209.95837,149.15425 " />
      <path
         sodipodi:type="inkscape:box3dside"
         id="path6768"
         style="fill:#e9e9ff;fill-rule:evenodd;stroke:none;stroke-linejoin:round"
         inkscape:box3dsidetype="11"
         d="m 240.69989,155.89318 28.67215,-6.28302 v 36.95565 l -28.67215,2.35687 z"
         points="269.37204,149.61016 269.37204,186.56581 240.69989,188.92268 240.69989,155.89318 " />
      <path
         sodipodi:type="inkscape:box3dside"
         id="path6760"
         style="fill:#4d4d9f;fill-rule:evenodd;stroke:none;stroke-linejoin:round"
         inkscape:box3dsidetype="5"
         d="m 209.95837,149.15425 28.64165,-8.11015 30.77202,8.56606 -28.67215,6.28302 z"
         points="238.60002,141.0441 269.37204,149.61016 240.69989,155.89318 209.95837,149.15425 " />
      <path
         sodipodi:type="inkscape:box3dside"
         id="path6766"
         style="fill:#afafde;fill-rule:evenodd;stroke:none;stroke-linejoin:round"
         inkscape:box3dsidetype="13"
         d="m 209.95837,186.39478 28.64165,-3.04226 30.77202,3.21329 -28.67215,2.35687 z"
         points="238.60002,183.35252 269.37204,186.56581 240.69989,188.92268 209.95837,186.39478 " />
      <path
         sodipodi:type="inkscape:box3dside"
         id="path6764"
         style="fill:#d7d7ff;fill-rule:evenodd;stroke:none;stroke-linejoin:round"
         inkscape:box3dsidetype="14"
         d="m 238.60002,141.0441 v 42.30842 l 30.77202,3.21329 v -36.95565 z"
         points="238.60002,183.35252 269.37204,186.56581 269.37204,149.61016 238.60002,141.0441 " />
      <path
         sodipodi:type="inkscape:box3dside"
         id="path6762"
         style="fill:#8686bf;fill-rule:evenodd;stroke:none;stroke-linejoin:round"
         inkscape:box3dsidetype="3"
         d="m 209.95837,149.15425 28.64165,-8.11015 v 42.30842 l -28.64165,3.04226 z"
         points="238.60002,141.0441 238.60002,183.35252 209.95837,186.39478 209.95837,149.15425 " />
    </g>
  </g>
</svg>
