<?xml version="1.0" encoding="UTF-8" standalone="no"?>
<!-- Created with Inkscape (http://www.inkscape.org/) -->

<svg
   xmlns:osb="http://www.openswatchbook.org/uri/2009/osb"
   xmlns:dc="http://purl.org/dc/elements/1.1/"
   xmlns:cc="http://creativecommons.org/ns#"
   xmlns:rdf="http://www.w3.org/1999/02/22-rdf-syntax-ns#"
   xmlns:svg="http://www.w3.org/2000/svg"
   xmlns="http://www.w3.org/2000/svg"
   xmlns:xlink="http://www.w3.org/1999/xlink"
   xmlns:sodipodi="http://sodipodi.sourceforge.net/DTD/sodipodi-0.dtd"
   xmlns:inkscape="http://www.inkscape.org/namespaces/inkscape"
   width="2000"
   height="900"
   viewBox="0 0 529.16665 238.125"
   version="1.1"
   id="svg3760"
   inkscape:version="0.92.3 (2405546, 2018-03-11)"
   sodipodi:docname="homeback.svg">
  <defs
     id="defs3754">
    <inkscape:perspective
       sodipodi:type="inkscape:persp3d"
       inkscape:vp_x="0 : 105.83334 : 1"
       inkscape:vp_y="0 : 999.99998 : 0"
       inkscape:vp_z="529.16665 : 105.83334 : 1"
       inkscape:persp3d-origin="264.58333 : 70.555556 : 1"
       id="perspective6368" />
    <linearGradient
       inkscape:collect="always"
       id="linearGradient6249">
      <stop
         style="stop-color:#7137c8;stop-opacity:1;"
         offset="0"
         id="stop6245" />
      <stop
         style="stop-color:#5500d4;stop-opacity:1"
         offset="1"
         id="stop6247" />
    </linearGradient>
    <linearGradient
       id="linearGradient6225"
       osb:paint="solid">
      <stop
         style="stop-color:#c699ff;stop-opacity:1;"
         offset="0"
         id="stop6223" />
    </linearGradient>
    <linearGradient
       inkscape:collect="always"
       id="linearGradient4742"
       osb:paint="gradient">
      <stop
         style="stop-color:#c699ff;stop-opacity:1;"
         offset="0"
         id="stop4738" />
      <stop
         style="stop-color:#c699ff;stop-opacity:0;"
         offset="1"
         id="stop4740" />
    </linearGradient>
    <linearGradient
       inkscape:collect="always"
       xlink:href="#linearGradient6249"
       id="linearGradient6251"
       x1="-1.4142135"
       y1="340.38058"
       x2="-0.42714468"
       y2="738.02039"
       gradientUnits="userSpaceOnUse" />
  </defs>
  <sodipodi:namedview
     id="base"
     pagecolor="#ffffff"
     bordercolor="#666666"
     borderopacity="0.25098039"
     inkscape:pageopacity="0"
     inkscape:pageshadow="2"
     inkscape:zoom="0.70710678"
     inkscape:cx="1035.6117"
     inkscape:cy="340.3861"
     inkscape:document-units="mm"
     inkscape:current-layer="layer1"
     showgrid="false"
     units="px"
     inkscape:showpageshadow="false"
     showborder="false"
     inkscape:pagecheckerboard="false"
     showguides="false"
     inkscape:window-width="1920"
     inkscape:window-height="1025"
     inkscape:window-x="0"
     inkscape:window-y="27"
     inkscape:window-maximized="1" />
  <metadata
     id="metadata3757">
    <rdf:RDF>
      <cc:Work
         rdf:about="">
        <dc:format>image/svg+xml</dc:format>
        <dc:type
           rdf:resource="http://purl.org/dc/dcmitype/StillImage" />
        <dc:title></dc:title>
      </cc:Work>
    </rdf:RDF>
  </metadata>
  <g
     inkscape:label="Layer 1"
     inkscape:groupmode="layer"
     id="layer1"
     transform="translate(0,-58.874984)">
    <path
       style="fill:none;stroke:#000000;stroke-width:0.26458332px;stroke-linecap:butt;stroke-linejoin:miter;stroke-opacity:1"
       d="M -0.37797618,276.96724 C 44.979166,179.82736 231.6994,272.05355 231.6994,272.05355"
       id="path3766"
       inkscape:connector-curvature="0" />
    <path
       style="fill:none;stroke:#000000;stroke-width:0.26458332px;stroke-linecap:butt;stroke-linejoin:miter;stroke-opacity:1"
       d="m 221.11607,267.13986 c 112.63691,58.96429 182.18452,-7.18155 182.18452,-7.18155"
       id="path3786"
       inkscape:connector-curvature="0" />
    <path
       style="fill:none;stroke:#000000;stroke-width:0.26458332px;stroke-linecap:butt;stroke-linejoin:miter;stroke-opacity:1"
       d="m 391.20534,268.65177 c 99.02976,-70.30357 138.3393,-43.08929 138.3393,-43.08929"
       id="path3790"
       inkscape:connector-curvature="0" />
    <path
       style="fill:none;stroke:#000000;stroke-width:0.26458332px;stroke-linecap:butt;stroke-linejoin:miter;stroke-opacity:1"
       d="m 529.54464,225.56248 c 0,-139.473211 0,-139.473211 0,-139.473211 L 0,85.711293 -0.37797618,276.96724"
       id="path3792"
       inkscape:connector-curvature="0" />
    <path
       style="fill:#3771c8;stroke-width:0.38109681"
       d="m 300.22649,296.13415 c -15.6137,-1.26241 -31.77199,-4.81024 -47.43602,-10.4154 -7.79873,-2.79068 -17.38523,-6.86744 -17.38523,-6.86744 -0.25354,-0.40669 -14.63065,-7.37289 -21.94028,-10.46433 C 176.45773,252.73562 140.6339,242.29245 110.38514,238.33769 97.795317,236.6917 80.898234,236.12537 70.79494,237.01078 37.472053,239.93105 14.459205,253.3486 1.6333811,277.33513 l -1.74639646,3.26608 0.25138383,-96.25293 C 0.2766296,131.40917 0.44641336,88.032183 0.51566569,87.954968 0.58491805,87.877753 119.54271,87.94401 264.86633,88.102207 l 264.22474,0.287629 v 70.306434 c 0,56.10133 -0.0955,70.26388 -0.47247,70.09581 -3.28771,-1.4657 -6.85268,-2.66014 -9.93471,-3.32862 -4.915,-1.06606 -16.06163,-1.46151 -22.1639,-0.7863 -17.41998,1.92752 -35.65525,7.88638 -56.63131,18.50581 -12.5838,6.37073 -19.47077,10.40471 -35.95338,21.05941 -3.39117,2.1921 -11.7669,8.19445 -12.56075,9.0015 -1.04233,1.05955 -7.43866,4.8591 -12.65561,7.51765 -20.82863,10.6142 -43.33298,15.88497 -67.15318,15.72803 -4.15774,-0.0273 -9.26041,-0.18732 -11.33927,-0.35541 z"
       id="path3794"
       inkscape:connector-curvature="0"
       sodipodi:nodetypes="cccscsccssscsccssccccc" />
    <path
       style="fill:url(#linearGradient6251);fill-opacity:1;stroke:#5599ff;stroke-width:1.44007063"
       d="M 2.3359375,10.082031 1.3847656,284.61914 C 0.86178321,435.61421 0.4440266,601.3432 0.45507812,652.9082 l 0.0195313,93.75586 5.75585938,-10.72851 C 55.582668,643.92915 143.11069,592.56384 268.91406,581.78516 c 40.39001,-3.46058 111.88482,-0.23175 164.18555,7.41601 127.22547,18.60367 299.56427,74.74485 433.04297,141.06641 85.16148,42.31415 171.30032,68.31546 256.42972,77.40625 24.1655,2.58058 101.5173,1.80494 124.998,-1.25391 67.9418,-8.85078 131.0627,-28.62591 187.0684,-58.60547 23.4727,-12.56485 33.8714,-19.06823 49.3593,-30.87109 65.7963,-50.14141 163.0792,-107.39343 233.959,-137.68555 74.4429,-31.81493 133.4086,-45.89051 191.0371,-45.60742 33.9712,0.16706 51.0638,2.57734 72.4121,10.21875 l 15.9102,5.69531 0.6543,-7.42187 c 0.3602,-4.08231 0.7425,-124.77052 0.8496,-268.19531 l 0.1973,-260.773442 -38.9414,-0.855469 c -21.417,-0.471201 -470.6696,-1.167353 -998.33987,-1.546875 z"
       transform="matrix(0.26458333,0,0,0.26458333,0,85.333317)"
       id="path3802"
       inkscape:connector-curvature="0" />
    <path
       style="fill:none;stroke:#000000;stroke-width:0.26458332px;stroke-linecap:butt;stroke-linejoin:miter;stroke-opacity:1"
       d="M 0.37417734,144.33563 C 49.017232,201.21058 134.32966,179.13412 134.32966,179.13412"
       id="path3862"
       inkscape:connector-curvature="0" />
    <path
       style="fill:none;stroke:#000000;stroke-width:0.26458332px;stroke-linecap:butt;stroke-linejoin:miter;stroke-opacity:1"
       d="m 134.32966,179.13412 c 128.34283,-42.28204 221.13881,15.71545 221.13881,15.71545"
       id="path3894"
       inkscape:connector-curvature="0" />
    <path
       style="fill:none;stroke:#000000;stroke-width:0.26458332px;stroke-linecap:butt;stroke-linejoin:miter;stroke-opacity:1"
       d="m 355.46847,194.84957 c 155.65776,92.4218 173.61829,-24.32153 173.61829,-24.32153"
       id="path3896"
       inkscape:connector-curvature="0" />
    <path
       style="fill:none;stroke:#000000;stroke-width:0.26458332px;stroke-linecap:butt;stroke-linejoin:miter;stroke-opacity:1"
       d="m 529.08676,170.52804 c 0.45788,-84.438771 0.45788,-84.438771 0.45788,-84.438771 L 0,85.711293 0.37417734,144.33563"
       id="path3900"
       inkscape:connector-curvature="0" />
    <path
       style="fill:#0000d4;fill-opacity:1"
       d="m 0.61805012,88.000854 v 22.033276 c 0,12.11844 -0.11022039,24.86341 -0.2449463,28.3223 l -0.24494627,6.28903 5.57692045,5.64461 c 11.058301,11.1923 22.502628,18.70061 37.382213,24.52616 23.749706,9.29803 53.685045,11.59252 83.399039,6.39185 3.44464,-0.6029 8.87066,-1.98354 14.21877,-3.61735 23.091,-7.05417 44.31871,-11.07768 67.95555,-12.88035 8.00689,-0.61085 31.00443,-0.61334 38.91442,-0.005 8.69555,0.66913 20.85608,2.16014 28.48663,3.49281 29.16508,5.09362 58.27826,15.15514 78.93574,27.28051 13.8589,8.13481 27.00494,15.09288 36.82309,19.48976 22.54028,10.09427 42.53164,15.59709 59.68111,16.42794 23.59658,1.1432 41.6719,-5.10122 55.77126,-19.26704 8.51371,-8.55385 14.39656,-18.42488 18.81592,-31.5712 l 1.93217,-5.74694 0.10129,-43.04956 0.10128,-43.049572 -63.3372,-0.234094 c -34.83549,-0.128543 -153.54702,-0.28886 -263.80303,-0.3557 z"
       id="path3902"
       inkscape:connector-curvature="0" />
    <path
       style="fill:#5500d4;stroke-width:1.41421354"
       d="M 2.0931082,495.73019 V 372.69361 l 158.7454718,-0.0116 c 87.31001,-0.006 180.38294,-0.26295 206.82873,-0.57011 26.4458,-0.30716 157.54339,-0.69818 291.328,-0.86895 133.7846,-0.17077 319.88644,-0.70971 413.55969,-1.19766 l 170.3149,-0.88718 14.947,6.08662 c 25.1066,10.2237 64.1279,29.9354 99.7999,50.41414 85.4293,49.04365 141.7447,75.51676 207.8894,97.72604 68.0825,22.85991 124.9818,31.86497 181.6429,28.74737 56.7026,-3.1199 101.8511,-18.49895 142.5988,-48.57388 12.3594,-9.12208 37.903,-33.94734 48.7988,-47.42615 17.1058,-21.16113 35.4617,-52.67654 46.3331,-79.54951 3.0759,-7.60327 3.5943,-8.13173 7.9791,-8.13173 h 4.6895 l -0.014,82.37794 c 0,45.30786 -0.4091,85.68184 -0.8943,89.71994 l -0.882,7.342 -9.28,-3.49295 c -22.1842,-8.35084 -45.1751,-11.89816 -77.1123,-11.89816 -69.2957,0 -142.9164,20.62037 -233.2273,65.32442 l -33.6177,16.64077 -506.6119,1.42374 c -278.63659,0.78305 -519.71418,1.47888 -535.72799,1.54628 l -29.11603,0.12261 -28.15962,-7.05018 C 483.80569,595.7109 435.48993,587.20699 383.93077,582.5267 c -33.09857,-3.00453 -107.44902,-3.47966 -127.98633,-0.81788 -48.84659,6.33082 -87.44965,16.59705 -122.81485,32.66179 l -9.67777,4.39616 H 62.772463 2.0931082 Z"
       id="path6253"
       inkscape:connector-curvature="0"
       transform="matrix(0.26458333,0,0,0.26458333,0,85.333317)" />
    <path
       style="fill:#5500d4;stroke-width:1.41421354"
       d="m 2.0931082,299.60772 v -73.08588 l 20.8596498,20.51469 c 33.830722,33.27125 61.438291,53.64635 98.589772,72.76181 53.45306,27.50307 111.73108,43.77934 181.77807,50.76818 15.14922,1.51148 -5.12896,1.78974 -141.77491,1.94542 L 2.0931082,372.69361 Z"
       id="path6255"
       inkscape:connector-curvature="0"
       transform="matrix(0.26458333,0,0,0.26458333,0,85.333317)" />
    <path
       style="fill:#5500d4;stroke-width:1.41421354"
       d="m 422.82164,370.39334 c 43.24575,-4.72338 68.41488,-9.5176 103.23759,-19.66471 56.61937,-16.49849 83.31444,-23.28595 121.98278,-31.01519 45.22768,-9.04035 94.40993,-15.7641 139.64673,-19.09123 25.45131,-1.87193 124.90962,-1.89811 148.64061,-0.0391 99.21405,7.77197 192.67345,27.38919 278.40735,58.43792 l 24.0862,8.72287 -30.4056,0.86619 c -34.9429,0.99544 -794.16141,2.71886 -785.59566,1.78329 z"
       id="path6257"
       inkscape:connector-curvature="0"
       transform="matrix(0.26458333,0,0,0.26458333,0,85.333317)" />
    <path
       style="fill:#5500d4;stroke-width:1.41421354"
       d="m 1135.5853,807.3169 c -27.53,-1.73123 -65.8541,-7.92632 -99.7021,-16.11685 C 976.43899,776.81574 930.30657,759.77674 862.18052,727.04302 746.91247,671.65813 633.13538,631.1678 518.28106,604.65806 452.63232,589.50556 408.19049,583.29109 345.23001,580.45967 263.76012,576.79585 206.60048,585.02821 145.94055,609.16215 86.775982,632.70116 37.636552,675.96776 7.7028485,730.87862 L 2.1328919,741.09624 2.113,483.87556 2.0931082,226.65486 22.567825,246.60546 c 44.729298,43.5843 82.924005,68.69741 137.917205,90.68092 37.08406,14.82434 77.63051,24.88384 126.57211,31.40233 l 14.14214,1.88358 -15.55635,0.70711 c -8.55599,0.3889 149.58844,0.49718 351.43207,0.24061 201.84363,-0.25658 367.6248,-0.68363 368.4026,-0.94902 0.7778,-0.26538 -127.40293,-0.53275 -284.84616,-0.59416 -157.4432,-0.0614 -285.99522,-0.35554 -285.67114,-0.65365 0.3241,-0.2981 4.05174,-0.95292 8.28366,-1.45516 27.22367,-3.23094 48.31657,-7.68438 88.00114,-18.5801 95.32742,-26.1729 130.75905,-33.74061 197.75378,-42.23749 51.90977,-6.58367 61.46285,-7.0945 132.93607,-7.1085 62.78389,-0.0123 75.70042,0.47151 110.30866,4.1318 60.09499,6.35584 133.85499,21.10092 190.21169,38.02449 28.9877,8.70482 71.7278,23.68552 70.6508,24.76361 -0.4846,0.48512 -37.8985,1.21279 -83.1421,1.61704 l -82.261,0.735 88.7226,0.32566 88.7226,0.32565 19.4647,8.36737 c 24.9719,10.73471 61.0214,29.32244 106.4389,54.88174 78.7197,44.30045 137.4497,71.30415 198.697,91.35953 55.2193,18.0815 96.9506,26.00172 144.2498,27.37724 81.3176,2.36482 141.0301,-16.96575 191.626,-62.0346 32.4267,-28.88447 51.0208,-54.13589 72.4464,-98.38452 10.6506,-21.99575 11.3067,-22.98097 15.3025,-22.98097 h 4.1749 l -0.014,80.25662 c 0,44.14114 -0.4113,84.50401 -0.9016,89.69528 l -0.8915,9.43866 -11.1725,-4.11945 c -22.9601,-8.46563 -36.4052,-10.33698 -74.7056,-10.39797 -29.2646,-0.0465 -37.7507,0.43946 -54.6152,3.12815 -59.8002,9.53379 -116.7548,29.79773 -195.3461,69.50237 -50.1423,25.33217 -107.5298,60.18077 -152.0452,92.32968 -40.0897,28.95261 -57.7833,40.29419 -81.9101,52.50382 -64.2426,32.51072 -137.021,52.50109 -204.1124,56.06447 -23.5825,1.25253 -69.7654,1.50112 -86.2529,0.4643 z"
       id="path6259"
       inkscape:connector-curvature="0"
       transform="matrix(0.26458333,0,0,0.26458333,0,85.333317)" />
    <path
       style="fill:#5500d4;stroke-width:1.41421354"
       d="M 1132.7569,807.40596 C 1103.2972,805.04317 1063.2,798.21042 1030.2264,789.93423 972.9736,775.56415 929.95834,759.54541 864.16735,728.09443 755.17026,675.98905 653.15803,638.59206 547.27244,611.92292 454.23942,588.49095 393.48633,580.35645 311.09877,580.30057 c -42.7967,-0.029 -63.66594,1.7389 -94.69869,8.02232 C 120.93492,607.65241 52.750904,653.3688 10.616755,726.29763 L 2.0931082,741.05097 V 483.89981 226.74865 l 20.1525428,19.42404 c 34.837637,33.57827 62.518889,54.00203 97.926279,72.25187 50.19746,25.873 94.32337,39.28761 161.99025,49.24624 l 24.51961,3.6086 296.36491,-0.34725 296.36491,-0.34723 -232.63813,-0.71974 c -127.95097,-0.39585 -231.68353,-0.88764 -230.51681,-1.09287 1.16673,-0.20525 8.58786,-1.29252 16.49141,-2.4162 24.16135,-3.43509 41.79313,-7.42735 87.45329,-19.80155 93.0671,-25.2218 124.05232,-31.62736 198.697,-41.07657 65.23137,-8.25758 176.43561,-8.56266 242.46245,-0.66517 58.95678,7.05184 130.44908,21.65705 182.50868,37.28483 27.053,8.12102 70.3786,23.62056 69.2342,24.76821 -0.4815,0.4829 -19.4382,1.21936 -42.1259,1.63659 l -41.2504,0.75859 47.9667,0.30207 47.9667,0.30207 18.5014,7.88542 c 22.5978,9.63137 55.9356,26.80671 105.4754,54.33998 47.7986,26.56555 81.25,43.87035 108.8945,56.33235 72.6651,32.75715 136.4638,52.41517 196.5757,60.56996 24.7952,3.36375 76.6626,3.3509 99.552,-0.0246 45.7069,-6.74056 84.0866,-22.23758 115.4084,-46.59997 38.6438,-30.05748 63.5703,-61.38234 87.1509,-109.5221 11.4651,-23.40559 12.1197,-24.39518 16.1396,-24.39518 h 4.1897 v 83.24122 c 0,45.78266 -0.3954,86.12572 -0.8786,89.65122 l -0.8785,6.41003 -14.3243,-4.83898 c -22.1675,-7.48861 -36.6561,-9.40184 -71.5998,-9.45482 -32.3841,-0.0491 -46.7267,1.27754 -74.9533,6.93288 -94.801,18.99387 -222.0383,81.736 -341.6606,168.47643 -31.1356,22.57712 -45.724,31.48023 -74.8253,45.66506 -52.3196,25.50209 -109.2278,42.53987 -167.5843,50.17316 -17.0396,2.22886 -100.2384,4.13031 -118.0868,2.69879 z"
       id="path6261"
       inkscape:connector-curvature="0"
       transform="matrix(0.26458333,0,0,0.26458333,0,85.333317)" />
    <path
       style="fill:#2a2aff;stroke-width:1.41421354"
       d="m 1129.9284,807.3205 c -30.4211,-2.55666 -78.165,-11.32809 -113.8442,-20.91525 C 966.38518,773.05089 925.73711,757.39727 859.81363,726.22528 736.25473,667.8003 622.16046,627.84854 504.62616,601.85125 430.35437,585.42315 374.07951,579.71316 298.8293,580.96986 242.62415,581.90852 214.15009,586.3272 169.67742,601.012 97.87064,624.72249 47.628446,664.20589 11.380779,725.4112 L 2.0931082,741.09372 V 483.95299 226.81223 l 20.1525428,19.07383 c 33.648613,31.84748 54.837192,48.14356 84.894509,65.29214 50.80545,28.986 104.65389,46.17822 177.12703,56.55145 l 24.80046,3.54975 186.98464,-0.34196 c 186.70828,-0.34146 186.80072,-0.34305 62.53385,-1.07226 -68.44793,-0.40166 -123.81439,-0.88834 -123.03658,-1.08152 0.77782,-0.19317 9.84669,-1.61134 20.15306,-3.15149 23.98646,-3.58446 43.15741,-7.93232 80.96321,-18.36196 109.8183,-30.29603 178.54724,-42.7091 259.50819,-46.86953 40.39682,-2.07592 139.45987,-0.77838 167.58431,2.19503 81.19387,8.5841 161.54447,25.73803 231.22387,49.36358 30.3429,10.28808 39.2631,13.76137 38.1691,14.86203 -0.5043,0.5074 -9.9351,1.2751 -20.9572,1.706 l -20.0403,0.78346 27.1664,0.2772 27.1663,0.2772 16.6743,7.25002 c 25.2979,10.99963 56.1083,26.79891 102.9413,52.78745 45.356,25.16891 99.5142,52.91492 123.7437,63.39561 73.6935,31.8769 134.6962,49.70789 192.1403,56.1624 19.9206,2.2383 71.6972,1.85696 90.9742,-0.67003 59.0307,-7.73823 103.9238,-30.05318 146.8801,-73.00954 23.664,-23.66409 40.9944,-49.10722 59.38,-87.17758 9.385,-19.43303 9.8873,-20.15254 14.071,-20.15254 h 4.3386 l -0.3944,88.97836 c -0.2168,48.93809 -0.7358,89.31955 -1.1533,89.73654 -0.4173,0.41701 -5.1903,-0.85161 -10.6066,-2.81915 -24.9852,-9.07636 -30.1281,-9.7239 -77.0227,-9.69781 -47.7915,0.0266 -57.647,1.17321 -96.7292,11.25381 -90.8634,23.43668 -204.5199,81.41758 -315.0519,160.72098 -16.4736,11.81934 -36.1941,25.19615 -43.8232,29.72624 -66.7553,39.63803 -152.5763,66.15516 -228.168,70.49974 -22.2275,1.2775 -81.6409,1.57273 -94.7523,0.47082 z M 705.3108,370.34279 c -0.97227,-0.39232 -2.56326,-0.39232 -3.53553,0 -0.97227,0.39232 -0.17678,0.71331 1.76776,0.71331 1.94455,0 2.74004,-0.32099 1.76777,-0.71331 z"
       id="path6263"
       inkscape:connector-curvature="0"
       transform="matrix(0.26458333,0,0,0.26458333,0,85.333317)" />
    <path
       sodipodi:type="star"
       style="opacity:0.2;fill:#afc6e9;stroke-width:0.26458332"
       id="path6296"
       sodipodi:sides="5"
       sodipodi:cx="23.198996"
       sodipodi:cy="142.83891"
       sodipodi:r1="11.713604"
       sodipodi:r2="5.856802"
       sodipodi:arg1="-1.1071487"
       sodipodi:arg2="-0.47883019"
       inkscape:flatsided="false"
       inkscape:rounded="0"
       inkscape:randomized="0"
       d="m 28.437479,132.36195 -0.04037,7.77849 6.384854,4.44301 -7.410264,2.36529 -2.252519,7.44532 -4.539426,-6.31666 -7.776986,0.15845 4.604744,-6.2692 -2.553923,-7.34739 7.385314,2.44208 z"
       inkscape:transform-center-x="-0.59336927"
       inkscape:transform-center-y="0.53908955" />
    <ellipse
       style="opacity:0.12000002;fill:#afc6e9;stroke-width:0.26458332"
       id="path6302"
       cx="28.250387"
       cy="197.6559"
       rx="12.160764"
       ry="10.664055" />
    <g
       sodipodi:type="inkscape:box3d"
       id="g6370"
       style="opacity:0.32000002;fill:#afc6e9"
       inkscape:perspectiveID="#perspective6368"
       inkscape:corner0="0.21079931 : 0.087903262 : 0 : 1"
       inkscape:corner7="0.086185553 : 0.034935277 : 0.13590611 : 1">
      <path
         sodipodi:type="inkscape:box3dside"
         id="path6380"
         style="fill:#afafde;fill-rule:evenodd;stroke:none;stroke-linejoin:round"
         inkscape:box3dsidetype="13"
         d="m 218.51956,191.44952 25.06989,0.0324 31.75841,-0.0351 -25.47857,-0.0259 z"
         points="243.58945,191.48197 275.34786,191.44691 249.86929,191.42097 218.51956,191.44952 " />
    </g>
    <path
       sodipodi:type="star"
       style="opacity:0.12999998;fill:#afc6e9;stroke-width:0.26458332"
       id="path6388"
       sodipodi:sides="5"
       sodipodi:cx="269.40771"
       sodipodi:cy="262.20148"
       sodipodi:r1="20.139643"
       sodipodi:r2="11.977311"
       sodipodi:arg1="-0.95702623"
       sodipodi:arg2="-1.7127598"
       inkscape:flatsided="false"
       inkscape:rounded="0"
       inkscape:randomized="0"
       d="m 281.00721,245.73767 -13.29413,4.60699 20.93709,17.801 -8.48962,-11.21984 -10.45985,25.41317 8.04727,-11.54123 -27.40163,-2.0948 13.4631,4.08697 -6.47529,-26.70783 0.27339,14.06711 z"
       inkscape:transform-center-x="-0.090535477"
       inkscape:transform-center-y="1.8368513" />
    <path
       sodipodi:type="star"
       style="opacity:0.12999998;fill:#afc6e9;stroke-width:0.26458332"
       id="path6390"
       sodipodi:sides="5"
       sodipodi:cx="126.84612"
       sodipodi:cy="218.79692"
       sodipodi:r1="12.809769"
       sodipodi:r2="13.180987"
       sodipodi:arg1="-1.4536876"
       sodipodi:arg2="-1.2734473"
       inkscape:flatsided="false"
       inkscape:rounded="0"
       inkscape:randomized="0"
       d="m 128.34283,206.07489 2.36515,0.11947 8.70002,10.09469 0.61725,2.28631 -6.91217,11.39364 -1.98366,1.29355 -12.97198,-3.05303 -1.84322,-1.48685 -1.10496,-13.28053 0.84449,-2.21246 z"
       inkscape:transform-center-x="0.32527224"
       inkscape:transform-center-y="1.1328103" />
    <path
       sodipodi:type="star"
       style="opacity:0.2;fill:#afc6e9;stroke-width:0.26458332"
       id="path6394"
       sodipodi:sides="5"
       sodipodi:cx="113.37573"
       sodipodi:cy="120.38828"
       sodipodi:r1="22.852404"
       sodipodi:r2="22.208813"
       sodipodi:arg1="-0.69264184"
       sodipodi:arg2="-0.064323312"
       inkscape:flatsided="false"
       inkscape:rounded="0"
       inkscape:randomized="0"
       d="m 130.96207,105.79537 4.57655,13.16535 -2.84972,13.6437 -11.10677,8.42088 -13.85654,1.50589 -11.440909,-7.96097 -5.714093,-12.71301 4.035896,-13.34102 10.325036,-9.362964 13.93523,-0.284239 z"
       inkscape:transform-center-x="0.32113207"
       inkscape:transform-center-y="0.31180488" />
    <ellipse
       style="opacity:0.23000004;fill:#0000d4;stroke-width:0.26458332;paint-order:stroke fill markers"
       id="path6570"
       cx="430.6781"
       cy="117.76904"
       rx="10.476966"
       ry="2.2450638" />
    <ellipse
       style="opacity:0.23000004;fill:#0000d4;stroke-width:0.26458332;paint-order:stroke fill markers"
       id="path6574"
       ry="5.9868374"
       rx="14.218739"
       cy="111.40802"
       cx="427.68469" />
    <path
       sodipodi:type="star"
       style="opacity:0.27000002;fill:#b7bec8;stroke:#000000;stroke-width:0.26458332;stroke-opacity:0;paint-order:stroke fill markers"
       id="path6614"
       sodipodi:sides="5"
       sodipodi:cx="320.29578"
       sodipodi:cy="117.39486"
       sodipodi:r1="19.097712"
       sodipodi:r2="11.357657"
       sodipodi:arg1="-0.96649082"
       sodipodi:arg2="-0.33817229"
       inkscape:flatsided="false"
       inkscape:rounded="0"
       inkscape:randomized="0"
       d="m 331.14692,101.67941 -0.13675,11.94739 7.58507,9.23177 -11.4049,3.56189 -6.43601,10.06661 -6.91187,-9.74603 -11.56275,-3.01026 7.13314,-9.58526 -0.71017,-11.92705 11.32039,3.82201 z"
       inkscape:transform-center-x="-0.14169563"
       inkscape:transform-center-y="1.6883787" />
    <path
       style="opacity:0.27000002;fill:#b7bec8;stroke:#000000;stroke-width:0.26458332;stroke-opacity:0;paint-order:stroke fill markers"
       id="path6676"
       sodipodi:type="arc"
       sodipodi:cx="451.63205"
       sodipodi:cy="121.51081"
       sodipodi:rx="27.314947"
       sodipodi:ry="18.708866"
       sodipodi:start="1.5675806"
       sodipodi:end="4.7122523"
       d="m 451.71989,140.21958 a 27.314947,18.708866 0 0 1 -23.71332,-9.31889 27.314947,18.708866 0 0 1 -0.0458,-18.72546 27.314947,18.708866 0 0 1 23.66758,-9.37329 l 0.004,18.70887 z" />
    <path
       sodipodi:type="star"
       style="opacity:0.27000002;fill:#b7bec8;stroke:#000000;stroke-width:0.26458332;stroke-opacity:0;paint-order:stroke fill markers"
       id="path6678"
       sodipodi:sides="5"
       sodipodi:cx="465.47662"
       sodipodi:cy="196.72046"
       sodipodi:r1="15.737705"
       sodipodi:r2="10.264603"
       sodipodi:arg1="-1.2565644"
       sodipodi:arg2="-2.4870404"
       inkscape:flatsided="false"
       inkscape:rounded="0"
       inkscape:randomized="0"
       d="m 470.34093,181.75337 -13.00743,8.71796 23.88083,6.25027 -12.31079,-9.6768 1.43521,24.64346 5.39894,-14.69855 -22.99381,8.98021 15.64752,0.5926 -15.64618,-19.09338 4.27176,15.0648 z"
       inkscape:transform-center-x="-1.5024753"
       inkscape:transform-center-y="0.00035183036" />
    <rect
       style="opacity:0.17000002;fill:#b7bec8;stroke:#000000;stroke-width:0.26458332;stroke-opacity:0;paint-order:stroke fill markers"
       id="rect6680"
       width="29.185829"
       height="24.695704"
       x="335.26291"
       y="182.12753" />
    <g
       sodipodi:type="inkscape:box3d"
       id="g6717"
       style="opacity:0.17000002;fill:#b7bec8;stroke:#000000;stroke-opacity:0;paint-order:stroke fill markers"
       inkscape:perspectiveID="#perspective6368"
       inkscape:corner0="0.28799052 : 0.096319619 : 0 : 1"
       inkscape:corner7="0.13865828 : 0.037920055 : 0.13026828 : 1">
      <path
         sodipodi:type="inkscape:box3dside"
         id="path6719"
         style="fill:#353564;fill-rule:evenodd;stroke:none;stroke-linejoin:round"
         inkscape:box3dsidetype="6"
         d="m 205.42336,143.77357 v 45.34161 l 29.7361,0.18843 v -41.17695 z"
         points="205.42336,189.11518 235.15946,189.30361 235.15946,148.12666 205.42336,143.77357 " />
      <path
         sodipodi:type="inkscape:box3dside"
         id="path6729"
         style="fill:#e9e9ff;fill-rule:evenodd;stroke:none;stroke-linejoin:round"
         inkscape:box3dsidetype="11"
         d="m 235.15946,148.12666 27.67448,-5.06511 v 46.02281 l -27.67448,0.21925 z"
         points="262.83394,143.06155 262.83394,189.08436 235.15946,189.30361 235.15946,148.12666 " />
      <path
         sodipodi:type="inkscape:box3dside"
         id="path6721"
         style="fill:#4d4d9f;fill-rule:evenodd;stroke:none;stroke-linejoin:round"
         inkscape:box3dsidetype="5"
         d="m 205.42336,143.77357 26.94077,-6.21549 30.46981,5.50347 -27.67448,5.06511 z"
         points="232.36413,137.55808 262.83394,143.06155 235.15946,148.12666 205.42336,143.77357 " />
      <path
         sodipodi:type="inkscape:box3dside"
         id="path6727"
         style="fill:#afafde;fill-rule:evenodd;stroke:none;stroke-linejoin:round"
         inkscape:box3dsidetype="13"
         d="m 205.42336,189.11518 26.94077,-0.26905 30.46981,0.23823 -27.67448,0.21925 z"
         points="232.36413,188.84613 262.83394,189.08436 235.15946,189.30361 205.42336,189.11518 " />
      <path
         sodipodi:type="inkscape:box3dside"
         id="path6725"
         style="fill:#d7d7ff;fill-rule:evenodd;stroke:none;stroke-linejoin:round"
         inkscape:box3dsidetype="14"
         d="m 232.36413,137.55808 v 51.28805 l 30.46981,0.23823 v -46.02281 z"
         points="232.36413,188.84613 262.83394,189.08436 262.83394,143.06155 232.36413,137.55808 " />
      <path
         sodipodi:type="inkscape:box3dside"
         id="path6723"
         style="fill:#8686bf;fill-rule:evenodd;stroke:none;stroke-linejoin:round"
         inkscape:box3dsidetype="3"
         d="m 205.42336,143.77357 26.94077,-6.21549 v 51.28805 l -26.94077,0.26905 z"
         points="232.36413,137.55808 232.36413,188.84613 205.42336,189.11518 205.42336,143.77357 " />
    </g>
  </g>
</svg>
