<?xml version="1.0" ?><svg baseProfile="tiny" id="Layer_1" version="1.2" viewBox="0 0 512 512" xml:space="preserve" xmlns="http://www.w3.org/2000/svg" xmlns:xlink="http://www.w3.org/1999/xlink"><g id="XMLID_178_"><path d="M268.7,413.6h-25.4c-21.6,0-39.1-17.5-39.1-39.1v-56.6c0-21.6,17.5-39.1,39.1-39.1h25.4   c21.6,0,39.1,17.5,39.1,39.1v56.6C307.8,396.1,290.3,413.6,268.7,413.6z" fill="#EDBB98" id="XMLID_198_"/><path d="M307.8,373.6v0.9c0,21.6-17.5,39.1-39.1,39.1h-25.4c-21.6,0-39.1-17.5-39.1-39.1v-0.9   c-81.4,17.6-144.8,71.8-161.8,138c-0.2,0.9,107.8,0,213.6,0c105.8,0,213.9,0.9,213.6,0C452.6,445.4,389.2,391.2,307.8,373.6z" fill="#29ABE2" id="XMLID_197_"/><g id="XMLID_179_"><ellipse cx="385.4" cy="214.7" fill="#F4C5A2" id="XMLID_196_" rx="28.7" ry="39.6" transform="matrix(0.9772 0.2124 -0.2124 0.9772 54.3952 -76.9704)"/><ellipse cx="131.6" cy="217.2" fill="#F4C5A2" id="XMLID_195_" rx="28.7" ry="39.6" transform="matrix(-0.9772 0.2124 -0.2124 -0.9772 306.2907 401.5808)"/><ellipse cx="258.8" cy="212.2" fill="#F4C5A2" id="XMLID_194_" rx="123.2" ry="143.7"/><g id="XMLID_183_"><g id="XMLID_189_"><path d="M282.1,175c2.8-5,7.3-8.8,12.3-11.6c5-2.8,10.8-4.4,16.8-4.5c3-0.2,6,0.3,8.9,0.8      c2.9,0.9,5.7,1.7,8.2,3.3c2.6,1.3,4.9,3.2,7,5.2c1.1,0.9,1.9,2.1,2.8,3.3c0.8,1.2,1.6,2.3,2.3,3.6c-2.9-0.6-5.3-1.7-7.8-2.3      c-2.5-0.6-4.8-1.4-7.2-1.7c-2.3-0.6-4.7-0.7-6.9-1.1c-2.3,0-4.6-0.3-6.9-0.1c-4.6,0.1-9.2,0.7-14.1,1.6      C292.6,172.4,287.6,173.6,282.1,175z" fill="#333333" id="XMLID_193_"/><g id="XMLID_190_"><circle cx="311.2" cy="197.4" fill="#333333" id="XMLID_192_" r="14.8"/><circle cx="313.7" cy="186.6" fill="#F2F2F2" id="XMLID_191_" r="3.7"/></g></g><g id="XMLID_184_"><path d="M177.3,175c2.8-5,7.3-8.8,12.3-11.6c5-2.8,10.8-4.4,16.8-4.5c3-0.2,6,0.3,8.9,0.8      c2.9,0.9,5.7,1.7,8.2,3.3c2.6,1.3,4.9,3.2,7,5.2c1.1,0.9,1.9,2.1,2.8,3.3c0.8,1.2,1.6,2.3,2.3,3.6c-2.9-0.6-5.3-1.7-7.8-2.3      c-2.5-0.6-4.8-1.4-7.2-1.7c-2.3-0.6-4.7-0.7-6.9-1.1c-2.3,0-4.6-0.3-6.9-0.1c-4.6,0.1-9.2,0.7-14.1,1.6      C187.7,172.4,182.8,173.6,177.3,175z" fill="#333333" id="XMLID_188_"/><g id="XMLID_185_"><circle cx="206.4" cy="197.4" fill="#333333" id="XMLID_187_" r="14.8"/><circle cx="208.8" cy="186.6" fill="#F2F2F2" id="XMLID_186_" r="3.7"/></g></g></g><path d="M213.8,278.4c7.4,3.2,14.8,5.6,22.3,7.2c7.5,1.5,15,2.5,22.6,2.3c1.9,0.1,3.8-0.2,5.6-0.3    c1.9-0.1,3.8-0.2,5.6-0.5c1.9-0.3,3.7-0.6,5.6-0.8l5.6-1.2l2.8-0.6c0.9-0.2,1.8-0.6,2.8-0.8l5.6-1.6c3.8-1.1,7.4-2.7,11.4-3.7    c-3.1,2.6-6.3,5.2-9.7,7.4c-3.6,1.9-7.1,4.2-11,5.5c-1.9,0.7-3.9,1.5-5.8,2.1c-2,0.5-4,0.9-6.1,1.4c-2,0.5-4.1,0.7-6.2,0.9    c-2.1,0.2-4.2,0.5-6.2,0.4c-8.4,0.2-16.7-1.4-24.5-4.4C226.6,288.7,219.3,284.4,213.8,278.4z" fill="#F4A56E" id="XMLID_182_"/><path d="M238,246.5c4,1.1,7.5,2,10.9,2.6c3.4,0.7,6.7,1,10,1.1c3.2,0,6.5-0.2,9.9-1    c1.7-0.2,3.4-0.8,5.2-1.2c1.8-0.4,3.6-1.2,5.7-1.5c-1,1.8-2.2,3.5-3.6,5c-1.5,1.4-3.1,2.8-5,3.8c-3.6,2.2-8,3.2-12.3,3.2    c-4.3,0-8.5-1.2-12.2-3.2C243,253,239.9,250.2,238,246.5z" fill="#F4A56E" id="XMLID_181_"/><path d="M258.8,96.6c0,0,27.1,53.8,89.7,58.5c0,0,17.9,37.9,8.3,57l21.7-34c0,0,19.1-5.1,29.9,8.4    c0,0,25.8-115.8-55.2-161.4c0,0,14.3-9.5,16.3-9.5c2,0-21.7,1.4-29.2,5.4V0l-14.3,17.7c0,0-85.6-48.2-184.3,17.8    c0,0-68.5,55.8-35.3,157.5c0,0,10.8-23.2,31.9-10.4c0,0,11.8,23.3,22.2,34.7c0,0-14.8-56,13.1-90c0,0,3.1,24.1,17.9,27.9    c0,0-8.6-19.3,3.8-46.5c0,0,9.9,53.2,54.4,54C249.9,162.6,218.9,117.1,258.8,96.6z" fill="#3F2820" id="XMLID_180_"/></g></g></svg>