<?xml version="1.0" encoding="UTF-8" standalone="no"?>
<!-- Created with Inkscape (http://www.inkscape.org/) -->

<svg
   xmlns:dc="http://purl.org/dc/elements/1.1/"
   xmlns:cc="http://creativecommons.org/ns#"
   xmlns:rdf="http://www.w3.org/1999/02/22-rdf-syntax-ns#"
   xmlns:svg="http://www.w3.org/2000/svg"
   xmlns="http://www.w3.org/2000/svg"
   xmlns:sodipodi="http://sodipodi.sourceforge.net/DTD/sodipodi-0.dtd"
   xmlns:inkscape="http://www.inkscape.org/namespaces/inkscape"
   width="700"
   height="600"
   viewBox="0 0 185.20834 158.75"
   version="1.1"
   id="svg8"
   inkscape:version="0.92.3 (2405546, 2018-03-11)"
   sodipodi:docname="mobilebg.svg">
  <defs
     id="defs2">
    <inkscape:perspective
       sodipodi:type="inkscape:persp3d"
       inkscape:vp_x="0 : 79.375 : 1"
       inkscape:vp_y="0 : 1000 : 0"
       inkscape:vp_z="185.20834 : 79.375 : 1"
       inkscape:persp3d-origin="92.60417 : 52.916667 : 1"
       id="perspective934" />
  </defs>
  <sodipodi:namedview
     id="base"
     pagecolor="#ffffff"
     bordercolor="#666666"
     borderopacity="1.0"
     inkscape:pageopacity="0.0"
     inkscape:pageshadow="2"
     inkscape:zoom="1"
     inkscape:cx="359.45752"
     inkscape:cy="375.05314"
     inkscape:document-units="mm"
     inkscape:current-layer="layer1"
     showgrid="false"
     units="px"
     showborder="false"
     inkscape:window-width="1920"
     inkscape:window-height="1025"
     inkscape:window-x="0"
     inkscape:window-y="27"
     inkscape:window-maximized="1" />
  <metadata
     id="metadata5">
    <rdf:RDF>
      <cc:Work
         rdf:about="">
        <dc:format>image/svg+xml</dc:format>
        <dc:type
           rdf:resource="http://purl.org/dc/dcmitype/StillImage" />
        <dc:title></dc:title>
      </cc:Work>
    </rdf:RDF>
  </metadata>
  <g
     inkscape:label="Layer 1"
     inkscape:groupmode="layer"
     id="layer1"
     transform="translate(0,-138.25)">
    <path
       style="fill:none;stroke:#000000;stroke-width:0.26458332px;stroke-linecap:butt;stroke-linejoin:miter;stroke-opacity:1"
       d="M 0.26458333,254.66667 C 46.566666,221.32917 89.958332,252.02083 89.958332,252.02083 v 0"
       id="path58"
       inkscape:connector-curvature="0" />
    <path
       style="fill:none;stroke:#000000;stroke-width:0.26458332px;stroke-linecap:butt;stroke-linejoin:miter;stroke-opacity:1"
       d="m 89.95833,252.02083 c 46.83125,26.45833 95.77917,1.32292 95.77917,1.32292"
       id="path62"
       inkscape:connector-curvature="0" />
    <path
       style="fill:none;stroke:none;stroke-width:0.26458332px;stroke-linecap:butt;stroke-linejoin:miter;stroke-opacity:1"
       d="m 185.7375,253.34375 c -0.52917,-115.35833 -0.52917,-115.35833 -0.52917,-115.35833 v 0 C 0,138.25 0,138.25 0,138.25 v 0 l 0.26458333,116.41667"
       id="path64"
       inkscape:connector-curvature="0" />
    <path
       style="fill:none;stroke:none;stroke-width:0.26458332px;stroke-linecap:butt;stroke-linejoin:miter;stroke-opacity:1"
       d="m 0.26458333,254.66667 v 0 c 0,0 0,0 -0.26458333,-116.41667 185.20833,-0.26458 185.20833,-0.26458 185.20833,-0.26458"
       id="path874"
       inkscape:connector-curvature="0" />
    <path
       style="fill:none;stroke:#000000;stroke-width:0.26458332px;stroke-linecap:butt;stroke-linejoin:miter;stroke-opacity:1"
       d="m 185.7375,253.34375 c 0,0 0,0 -0.52917,-115.35833 C 0,138.25 0,138.25 0,138.25 v 0 c 0.26458333,116.41667 0.26458333,116.41667 0.26458333,116.41667 v 0"
       id="path876"
       inkscape:connector-curvature="0" />
    <path
       style="opacity:0.86;fill:#0000ff;fill-opacity:0.94117647;stroke:none;stroke-width:0.26682785;stroke-opacity:0;paint-order:stroke fill markers"
       d="m 129.66306,265.2155 c -0.43845,-0.0596 -2.11252,-0.23991 -3.72016,-0.40075 -12.9536,-1.29601 -26.471205,-5.88955 -37.959341,-12.89929 -12.781834,-7.79911 -28.876209,-12.07019 -43.883975,-11.6458 -14.807484,0.41872 -28.163249,4.78223 -41.2344072,13.47182 -1.4149654,0.94066 -2.59814949,1.68167 -2.62929859,1.64669 -0.0311489,-0.035 -0.14466448,-26.29938 -0.25225648,-58.36534 L -0.212,138.7211 1.055028,138.54599 c 0.6968657,-0.0963 42.429823,-0.17511 92.73991,-0.17511 H 185.2678 l 0.16472,24.98495 c 0.0901,13.74172 0.23936,39.90401 0.33059,58.13842 l 0.16589,33.15347 -1.72786,0.78168 c -6.57603,2.97499 -16.32048,6.05671 -24.14435,7.63575 -8.30741,1.67661 -12.41941,2.09388 -21.49195,2.18092 -4.45751,0.0428 -8.46334,0.029 -8.90178,-0.0306 z"
       id="path886"
       inkscape:connector-curvature="0" />
    <path
       style="fill:none;stroke:#000000;stroke-width:0.26458332px;stroke-linecap:butt;stroke-linejoin:miter;stroke-opacity:1"
       d="m 0,184.2875 c 15.345833,32.27917 94.456249,5.82083 94.456249,5.82083 v 0"
       id="path896"
       inkscape:connector-curvature="0" />
    <path
       style="fill:none;stroke:#000000;stroke-width:0.26458332px;stroke-linecap:butt;stroke-linejoin:miter;stroke-opacity:1"
       d="m 94.456249,190.10833 c 41.539581,-11.1125 90.752081,10.05417 90.752081,10.05417"
       id="path898"
       inkscape:connector-curvature="0" />
    <path
       style="fill:none;stroke:#000000;stroke-width:0.26458332px;stroke-linecap:butt;stroke-linejoin:miter;stroke-opacity:1"
       d="m 185.20833,200.1625 c 0,-62.17708 0,-62.17708 0,-62.17708 0,0 0.33742,-0.38546 0,0 -0.33742,0.38546 -0.33742,0.38546 -0.33742,0.38546 C 0,138.25 0,138.25 0,138.25 c 0,46.0375 0,46.0375 0,46.0375"
       id="path900"
       inkscape:connector-curvature="0" />
    <path
       style="opacity:1;fill:#0000d4;fill-opacity:1;stroke:none;stroke-width:1.12990868;paint-order:stroke fill markers"
       d="M 28.725263,216.89252 C 16.277753,215.28029 7.2884937,210.21788 2.5341249,202.1427 0.06110938,197.94236 0.29950812,201.24363 0.07800212,168.13074 -0.08932441,143.11713 -0.06328882,138.6025 0.2497624,138.3472 0.46072642,138.17523 40.032338,138.04411 92.652018,138.04115 l 92.033272,-0.005 0.17395,6.9139 c 0.17348,6.8936 0.25349,71.95611 0.0884,71.95611 -0.0477,0 -0.85319,-0.40114 -1.7898,-0.89142 -13.04992,-6.83093 -32.46838,-12.92099 -47.84005,-15.00375 -8.18607,-1.10916 -20.18254,-1.18417 -27.04588,-0.16905 -6.85323,1.01358 -10.136941,1.94749 -20.859143,5.93237 -12.386082,4.60328 -25.198122,7.90754 -37.342571,9.63075 -4.509034,0.63981 -17.822391,0.944 -21.345043,0.48771 z"
       id="path902"
       inkscape:connector-curvature="0" />
    <path
       sodipodi:type="star"
       style="opacity:0.57;fill:#d7e3f4;fill-opacity:0.94117647;stroke:#052c80;stroke-width:0.26458332;stroke-opacity:0;paint-order:stroke fill markers"
       id="path922"
       sodipodi:sides="5"
       sodipodi:cx="15.345833"
       sodipodi:cy="193.54791"
       sodipodi:r1="8.7352581"
       sodipodi:r2="8.4892464"
       sodipodi:arg1="-1.6010901"
       sodipodi:arg2="-0.97277156"
       inkscape:flatsided="false"
       inkscape:rounded="0"
       inkscape:randomized="0"
       d="m 15.081249,184.81666 5.044124,1.71532 3.442611,4.06619 -0.07264,5.32731 -2.803355,4.53064 -5.08902,1.57714 -5.17518,-1.2661 -3.0725427,-4.35258 -0.3950826,-5.31314 3.1900843,-4.26718 z"
       inkscape:transform-center-x="0.081760942"
       inkscape:transform-center-y="-0.1229498" />
    <path
       sodipodi:type="star"
       style="opacity:0.56999978;fill:#d7e3f4;fill-opacity:0.94117647;stroke:#052c80;stroke-width:0.26458332;stroke-opacity:0;paint-order:stroke fill markers"
       id="path926"
       sodipodi:sides="5"
       sodipodi:cx="164.30624"
       sodipodi:cy="228.47292"
       sodipodi:r1="8.2404013"
       sodipodi:r2="8.0083265"
       sodipodi:arg1="-0.83082144"
       sodipodi:arg2="-0.20250291"
       inkscape:flatsided="false"
       inkscape:rounded="0"
       inkscape:randomized="0"
       d="m 169.86249,222.3875 2.28844,4.47477 -0.34014,5.01446 -3.54859,3.55921 -4.87414,1.22606 -4.48159,-2.27505 -2.67225,-4.25671 0.77882,-4.96527 3.2226,-3.85686 4.96293,-0.79365 z"
       inkscape:transform-center-x="0.11366821"
       inkscape:transform-center-y="0.1153135" />
    <path
       style="opacity:0.56999978;fill:#dbdee3;fill-opacity:0.94117647;stroke:#052c80;stroke-width:0.26458332;stroke-opacity:0;paint-order:stroke fill markers"
       id="path932"
       sodipodi:type="arc"
       sodipodi:cx="17.859375"
       sodipodi:cy="229.26666"
       sodipodi:rx="8.0697918"
       sodipodi:ry="7.6729164"
       sodipodi:start="0"
       sodipodi:end="3.1364963"
       sodipodi:open="true"
       d="m 25.929167,229.26666 a 8.0697918,7.6729164 0 0 1 -8.049229,7.67289 8.0697918,7.6729164 0 0 1 -8.09025,-7.63378" />
    <g
       sodipodi:type="inkscape:box3d"
       id="g936"
       style="opacity:0.56999966;fill:#dbdee3;fill-opacity:0.94117647;stroke:#052c80;stroke-opacity:0;paint-order:stroke fill markers"
       inkscape:perspectiveID="#perspective934"
       inkscape:corner0="0.23239436 : 0.051645117 : 0 : 1"
       inkscape:corner7="0.04477612 : 0.024921706 : 0.16614187 : 1">
      <path
         sodipodi:type="inkscape:box3dside"
         id="path938"
         style="fill:#353564;fill-rule:evenodd;stroke:none;stroke-linejoin:round"
         inkscape:box3dsidetype="6"
         d="m 75.141667,197.18772 v 21.68414 l 13.075587,-0.14812 v -19.10813 z"
         points="75.141667,218.87186 88.217254,218.72374 88.217254,199.61561 75.141667,197.18772 " />
      <path
         sodipodi:type="inkscape:box3dside"
         id="path946"
         style="fill:#afafde;fill-rule:evenodd;stroke:none;stroke-linejoin:round"
         inkscape:box3dsidetype="13"
         d="m 75.141667,218.87186 13.49375,0.22391 13.250113,-0.20179 -13.668276,-0.17024 z"
         points="88.635417,219.09577 101.88553,218.89398 88.217254,218.72374 75.141667,218.87186 " />
      <path
         sodipodi:type="inkscape:box3dside"
         id="path948"
         style="fill:#e9e9ff;fill-rule:evenodd;stroke:none;stroke-linejoin:round"
         inkscape:box3dsidetype="11"
         d="m 88.217254,199.61561 13.668276,-2.79035 v 22.06872 l -13.668276,-0.17024 z"
         points="101.88553,196.82526 101.88553,218.89398 88.217254,218.72374 88.217254,199.61561 " />
      <path
         sodipodi:type="inkscape:box3dside"
         id="path940"
         style="fill:#4d4d9f;fill-rule:evenodd;stroke:none;stroke-linejoin:round"
         inkscape:box3dsidetype="5"
         d="m 75.141667,197.18772 13.49375,-3.67007 13.250113,3.30761 -13.668276,2.79035 z"
         points="88.635417,193.51765 101.88553,196.82526 88.217254,199.61561 75.141667,197.18772 " />
      <path
         sodipodi:type="inkscape:box3dside"
         id="path944"
         style="fill:#d7d7ff;fill-rule:evenodd;stroke:none;stroke-linejoin:round"
         inkscape:box3dsidetype="14"
         d="m 88.635417,193.51765 v 25.57812 l 13.250113,-0.20179 v -22.06872 z"
         points="88.635417,219.09577 101.88553,218.89398 101.88553,196.82526 88.635417,193.51765 " />
      <path
         sodipodi:type="inkscape:box3dside"
         id="path942"
         style="fill:#8686bf;fill-rule:evenodd;stroke:none;stroke-linejoin:round"
         inkscape:box3dsidetype="3"
         d="m 75.141667,197.18772 13.49375,-3.67007 v 25.57812 l -13.49375,-0.22391 z"
         points="88.635417,193.51765 88.635417,219.09577 75.141667,218.87186 75.141667,197.18772 " />
    </g>
    <path
       sodipodi:type="star"
       style="opacity:0.56999966;fill:#dbdee3;fill-opacity:0.94117647;stroke:#052c80;stroke-width:0.26458332;stroke-opacity:0;paint-order:stroke fill markers"
       id="path950"
       sodipodi:sides="5"
       sodipodi:cx="11.1125"
       sodipodi:cy="150.68542"
       sodipodi:r1="9.0578737"
       sodipodi:r2="3.9315047"
       sodipodi:arg1="1.6879051"
       sodipodi:arg2="2.3618962"
       inkscape:flatsided="false"
       inkscape:rounded="0"
       inkscape:randomized="0"
       d="m 10.054167,159.68126 -1.7374659,-6.23174 -6.0867893,-0.99076 5.3898257,-3.57814 -0.9386453,-6.09505 5.0685608,4.02032 5.506675,-2.77617 -2.257283,6.06283 4.341957,4.37927 -6.463638,-0.27328 z"
       inkscape:transform-center-x="0.12508032"
       inkscape:transform-center-y="0.12667467" />
    <rect
       style="opacity:0.56999978;fill:#dbdee3;fill-opacity:0.94117647;stroke:#052c80;stroke-width:0.26458332;stroke-opacity:0;paint-order:stroke fill markers"
       id="rect952"
       width="20.108334"
       height="14.816667"
       x="69.585419"
       y="141.68959" />
    <path
       style="opacity:0.56999978;fill:#dbdee3;fill-opacity:0.94117647;stroke:#052c80;stroke-width:0.26458332;stroke-opacity:0;paint-order:stroke fill markers"
       id="path959"
       sodipodi:type="arc"
       sodipodi:cx="162.85104"
       sodipodi:cy="151.74374"
       sodipodi:rx="13.626041"
       sodipodi:ry="12.435416"
       sodipodi:start="0"
       sodipodi:end="3.1364963"
       sodipodi:open="true"
       d="m 176.47709,151.74374 a 13.626041,12.435416 0 0 1 -13.59132,12.43538 13.626041,12.435416 0 0 1 -13.66059,-12.372" />
    <path
       sodipodi:type="star"
       style="opacity:0.21000001;fill:#dbdee3;fill-opacity:0.94117647;stroke:#052c80;stroke-width:0.26458332;stroke-opacity:0;paint-order:stroke fill markers"
       id="path965"
       sodipodi:sides="5"
       sodipodi:cx="122.76667"
       sodipodi:cy="245.40625"
       sodipodi:r1="12.208162"
       sodipodi:r2="4.3006892"
       sodipodi:arg1="-0.52183428"
       sodipodi:arg2="-0.65266097"
       inkscape:flatsided="false"
       inkscape:rounded="0"
       inkscape:randomized="0"
       d="m 133.35,239.32083 -7.16656,3.4736 5.64123,10.79667 -5.51817,-5.7424 -8.52501,8.70148 3.75614,-7.0226 -10.90997,-5.41885 7.8396,1.4022 1.78227,-12.05052 1.08899,7.8892 z"
       inkscape:transform-center-x="0.77784225"
       inkscape:transform-center-y="-0.40095763" />
  </g>
</svg>
